<?xml version="1.0" encoding="UTF-8" standalone="no"?>
<!DOCTYPE svg PUBLIC "-//W3C//DTD SVG 1.1//EN"
 "http://www.w3.org/Graphics/SVG/1.1/DTD/svg11.dtd">
<!-- Generated by graphviz version 2.43.0 (0)
 -->
<!-- Title: List Pages: 1 -->
<svg width="1285pt" height="237pt"
 viewBox="0.00 0.00 1285.00 237.00" xmlns="http://www.w3.org/2000/svg" xmlns:xlink="http://www.w3.org/1999/xlink">
<g id="graph0" class="graph" transform="scale(1 1) rotate(0) translate(4 233)">
<title>List</title>
<polygon fill="#ece0da" stroke="transparent" points="-4,4 -4,-233 1281,-233 1281,4 -4,4"/>
<!-- 0 -->
<g id="node1" class="node">
<title>0</title>
<path fill="#f1c8cb" stroke="#9cad8c" d="M12,-136.5C12,-136.5 99,-136.5 99,-136.5 105,-136.5 111,-142.5 111,-148.5 111,-148.5 111,-216.5 111,-216.5 111,-222.5 105,-228.5 99,-228.5 99,-228.5 12,-228.5 12,-228.5 6,-228.5 0,-222.5 0,-216.5 0,-216.5 0,-148.5 0,-148.5 0,-142.5 6,-136.5 12,-136.5"/>
<text text-anchor="middle" x="55.5" y="-213.3" font-family="Times,serif" font-size="14.00">indx: 0</text>
<polyline fill="none" stroke="#9cad8c" points="0,-205.5 111,-205.5 "/>
<text text-anchor="middle" x="55.5" y="-190.3" font-family="Times,serif" font-size="14.00">data: 228337</text>
<polyline fill="none" stroke="#9cad8c" points="0,-182.5 111,-182.5 "/>
<text text-anchor="middle" x="55.5" y="-167.3" font-family="Times,serif" font-size="14.00">next: 1</text>
<polyline fill="none" stroke="#9cad8c" points="0,-159.5 111,-159.5 "/>
<text text-anchor="middle" x="55.5" y="-144.3" font-family="Times,serif" font-size="14.00">prev: 8</text>
</g>
<!-- 1 -->
<g id="node2" class="node">
<title>1</title>
<path fill="#f1c8cb" stroke="#9cad8c" d="M159,-136.5C159,-136.5 202,-136.5 202,-136.5 208,-136.5 214,-142.5 214,-148.5 214,-148.5 214,-216.5 214,-216.5 214,-222.5 208,-228.5 202,-228.5 202,-228.5 159,-228.5 159,-228.5 153,-228.5 147,-222.5 147,-216.5 147,-216.5 147,-148.5 147,-148.5 147,-142.5 153,-136.5 159,-136.5"/>
<text text-anchor="middle" x="180.5" y="-213.3" font-family="Times,serif" font-size="14.00">indx: 1</text>
<polyline fill="none" stroke="#9cad8c" points="147,-205.5 214,-205.5 "/>
<text text-anchor="middle" x="180.5" y="-190.3" font-family="Times,serif" font-size="14.00">data: 1</text>
<polyline fill="none" stroke="#9cad8c" points="147,-182.5 214,-182.5 "/>
<text text-anchor="middle" x="180.5" y="-167.3" font-family="Times,serif" font-size="14.00">next: 2</text>
<polyline fill="none" stroke="#9cad8c" points="147,-159.5 214,-159.5 "/>
<text text-anchor="middle" x="180.5" y="-144.3" font-family="Times,serif" font-size="14.00">prev: 0</text>
</g>
<!-- 0&#45;&gt;1 -->
<g id="edge1" class="edge">
<title>0&#45;&gt;1</title>
<path fill="none" stroke="#ece0da" d="M111.17,-175.79C119.74,-175.69 128.49,-175.78 136.74,-176.04"/>
<polygon fill="#ece0da" stroke="#ece0da" points="136.74,-179.54 146.88,-176.46 137.03,-172.55 136.74,-179.54"/>
</g>
<!-- 0&#45;&gt;1 -->
<g id="edge11" class="edge">
<title>0&#45;&gt;1</title>
<path fill="none" stroke="#9cad8c" d="M111.17,-189.21C119.74,-189.31 128.49,-189.22 136.74,-188.96"/>
<polygon fill="#9cad8c" stroke="#9cad8c" points="137.03,-192.45 146.88,-188.54 136.74,-185.46 137.03,-192.45"/>
</g>
<!-- 2 -->
<g id="node3" class="node">
<title>2</title>
<path fill="#f1c8cb" stroke="#9cad8c" d="M262,-136.5C262,-136.5 313,-136.5 313,-136.5 319,-136.5 325,-142.5 325,-148.5 325,-148.5 325,-216.5 325,-216.5 325,-222.5 319,-228.5 313,-228.5 313,-228.5 262,-228.5 262,-228.5 256,-228.5 250,-222.5 250,-216.5 250,-216.5 250,-148.5 250,-148.5 250,-142.5 256,-136.5 262,-136.5"/>
<text text-anchor="middle" x="287.5" y="-213.3" font-family="Times,serif" font-size="14.00">indx: 2</text>
<polyline fill="none" stroke="#9cad8c" points="250,-205.5 325,-205.5 "/>
<text text-anchor="middle" x="287.5" y="-190.3" font-family="Times,serif" font-size="14.00">data: 20</text>
<polyline fill="none" stroke="#9cad8c" points="250,-182.5 325,-182.5 "/>
<text text-anchor="middle" x="287.5" y="-167.3" font-family="Times,serif" font-size="14.00">next: 3</text>
<polyline fill="none" stroke="#9cad8c" points="250,-159.5 325,-159.5 "/>
<text text-anchor="middle" x="287.5" y="-144.3" font-family="Times,serif" font-size="14.00">prev: 1</text>
</g>
<!-- 1&#45;&gt;2 -->
<g id="edge2" class="edge">
<title>1&#45;&gt;2</title>
<path fill="none" stroke="#ece0da" d="M214.15,-176.2C222.28,-175.81 231.16,-175.68 239.83,-175.79"/>
<polygon fill="#ece0da" stroke="#ece0da" points="239.76,-179.29 249.85,-176.03 239.93,-172.29 239.76,-179.29"/>
</g>
<!-- 1&#45;&gt;2 -->
<g id="edge12" class="edge">
<title>1&#45;&gt;2</title>
<path fill="none" stroke="#9cad8c" d="M214.15,-188.8C222.28,-189.19 231.16,-189.32 239.83,-189.21"/>
<polygon fill="#9cad8c" stroke="#9cad8c" points="239.93,-192.71 249.85,-188.97 239.76,-185.71 239.93,-192.71"/>
</g>
<!-- 3 -->
<g id="node4" class="node">
<title>3</title>
<path fill="#f1c8cb" stroke="#9cad8c" d="M373,-136.5C373,-136.5 424,-136.5 424,-136.5 430,-136.5 436,-142.5 436,-148.5 436,-148.5 436,-216.5 436,-216.5 436,-222.5 430,-228.5 424,-228.5 424,-228.5 373,-228.5 373,-228.5 367,-228.5 361,-222.5 361,-216.5 361,-216.5 361,-148.5 361,-148.5 361,-142.5 367,-136.5 373,-136.5"/>
<text text-anchor="middle" x="398.5" y="-213.3" font-family="Times,serif" font-size="14.00">indx: 3</text>
<polyline fill="none" stroke="#9cad8c" points="361,-205.5 436,-205.5 "/>
<text text-anchor="middle" x="398.5" y="-190.3" font-family="Times,serif" font-size="14.00">data: 30</text>
<polyline fill="none" stroke="#9cad8c" points="361,-182.5 436,-182.5 "/>
<text text-anchor="middle" x="398.5" y="-167.3" font-family="Times,serif" font-size="14.00">next: 4</text>
<polyline fill="none" stroke="#9cad8c" points="361,-159.5 436,-159.5 "/>
<text text-anchor="middle" x="398.5" y="-144.3" font-family="Times,serif" font-size="14.00">prev: 2</text>
</g>
<!-- 2&#45;&gt;3 -->
<g id="edge3" class="edge">
<title>2&#45;&gt;3</title>
<path fill="none" stroke="#ece0da" d="M325.1,-176.08C333.28,-175.77 342.06,-175.68 350.59,-175.81"/>
<polygon fill="#ece0da" stroke="#ece0da" points="350.72,-179.31 360.81,-176.08 350.91,-172.32 350.72,-179.31"/>
</g>
<!-- 2&#45;&gt;3 -->
<g id="edge13" class="edge">
<title>2&#45;&gt;3</title>
<path fill="none" stroke="#9cad8c" d="M325.1,-188.92C333.28,-189.23 342.06,-189.32 350.59,-189.19"/>
<polygon fill="#9cad8c" stroke="#9cad8c" points="350.91,-192.68 360.81,-188.92 350.72,-185.69 350.91,-192.68"/>
</g>
<!-- 4 -->
<g id="node5" class="node">
<title>4</title>
<path fill="#f1c8cb" stroke="#9cad8c" d="M484,-136.5C484,-136.5 535,-136.5 535,-136.5 541,-136.5 547,-142.5 547,-148.5 547,-148.5 547,-216.5 547,-216.5 547,-222.5 541,-228.5 535,-228.5 535,-228.5 484,-228.5 484,-228.5 478,-228.5 472,-222.5 472,-216.5 472,-216.5 472,-148.5 472,-148.5 472,-142.5 478,-136.5 484,-136.5"/>
<text text-anchor="middle" x="509.5" y="-213.3" font-family="Times,serif" font-size="14.00">indx: 4</text>
<polyline fill="none" stroke="#9cad8c" points="472,-205.5 547,-205.5 "/>
<text text-anchor="middle" x="509.5" y="-190.3" font-family="Times,serif" font-size="14.00">data: 40</text>
<polyline fill="none" stroke="#9cad8c" points="472,-182.5 547,-182.5 "/>
<text text-anchor="middle" x="509.5" y="-167.3" font-family="Times,serif" font-size="14.00">next: 5</text>
<polyline fill="none" stroke="#9cad8c" points="472,-159.5 547,-159.5 "/>
<text text-anchor="middle" x="509.5" y="-144.3" font-family="Times,serif" font-size="14.00">prev: 3</text>
</g>
<!-- 3&#45;&gt;4 -->
<g id="edge4" class="edge">
<title>3&#45;&gt;4</title>
<path fill="none" stroke="#ece0da" d="M436.1,-176.08C444.28,-175.77 453.06,-175.68 461.59,-175.81"/>
<polygon fill="#ece0da" stroke="#ece0da" points="461.72,-179.31 471.81,-176.08 461.91,-172.32 461.72,-179.31"/>
</g>
<!-- 3&#45;&gt;4 -->
<g id="edge14" class="edge">
<title>3&#45;&gt;4</title>
<path fill="none" stroke="#9cad8c" d="M436.1,-188.92C444.28,-189.23 453.06,-189.32 461.59,-189.19"/>
<polygon fill="#9cad8c" stroke="#9cad8c" points="461.91,-192.68 471.81,-188.92 461.72,-185.69 461.91,-192.68"/>
</g>
<!-- 5 -->
<g id="node6" class="node">
<title>5</title>
<path fill="#f1c8cb" stroke="#9cad8c" d="M595,-136.5C595,-136.5 646,-136.5 646,-136.5 652,-136.5 658,-142.5 658,-148.5 658,-148.5 658,-216.5 658,-216.5 658,-222.5 652,-228.5 646,-228.5 646,-228.5 595,-228.5 595,-228.5 589,-228.5 583,-222.5 583,-216.5 583,-216.5 583,-148.5 583,-148.5 583,-142.5 589,-136.5 595,-136.5"/>
<text text-anchor="middle" x="620.5" y="-213.3" font-family="Times,serif" font-size="14.00">indx: 5</text>
<polyline fill="none" stroke="#9cad8c" points="583,-205.5 658,-205.5 "/>
<text text-anchor="middle" x="620.5" y="-190.3" font-family="Times,serif" font-size="14.00">data: 70</text>
<polyline fill="none" stroke="#9cad8c" points="583,-182.5 658,-182.5 "/>
<text text-anchor="middle" x="620.5" y="-167.3" font-family="Times,serif" font-size="14.00">next: 6</text>
<polyline fill="none" stroke="#9cad8c" points="583,-159.5 658,-159.5 "/>
<text text-anchor="middle" x="620.5" y="-144.3" font-family="Times,serif" font-size="14.00">prev: 4</text>
</g>
<!-- 4&#45;&gt;5 -->
<g id="edge5" class="edge">
<title>4&#45;&gt;5</title>
<path fill="none" stroke="#ece0da" d="M547.1,-176.08C555.28,-175.77 564.06,-175.68 572.59,-175.81"/>
<polygon fill="#ece0da" stroke="#ece0da" points="572.72,-179.31 582.81,-176.08 572.91,-172.32 572.72,-179.31"/>
</g>
<!-- 4&#45;&gt;5 -->
<g id="edge15" class="edge">
<title>4&#45;&gt;5</title>
<path fill="none" stroke="#9cad8c" d="M547.1,-188.92C555.28,-189.23 564.06,-189.32 572.59,-189.19"/>
<polygon fill="#9cad8c" stroke="#9cad8c" points="572.91,-192.68 582.81,-188.92 572.72,-185.69 572.91,-192.68"/>
</g>
<!-- 6 -->
<g id="node7" class="node">
<title>6</title>
<path fill="#f1c8cb" stroke="#9cad8c" d="M706,-136.5C706,-136.5 757,-136.5 757,-136.5 763,-136.5 769,-142.5 769,-148.5 769,-148.5 769,-216.5 769,-216.5 769,-222.5 763,-228.5 757,-228.5 757,-228.5 706,-228.5 706,-228.5 700,-228.5 694,-222.5 694,-216.5 694,-216.5 694,-148.5 694,-148.5 694,-142.5 700,-136.5 706,-136.5"/>
<text text-anchor="middle" x="731.5" y="-213.3" font-family="Times,serif" font-size="14.00">indx: 6</text>
<polyline fill="none" stroke="#9cad8c" points="694,-205.5 769,-205.5 "/>
<text text-anchor="middle" x="731.5" y="-190.3" font-family="Times,serif" font-size="14.00">data: 80</text>
<polyline fill="none" stroke="#9cad8c" points="694,-182.5 769,-182.5 "/>
<text text-anchor="middle" x="731.5" y="-167.3" font-family="Times,serif" font-size="14.00">next: 7</text>
<polyline fill="none" stroke="#9cad8c" points="694,-159.5 769,-159.5 "/>
<text text-anchor="middle" x="731.5" y="-144.3" font-family="Times,serif" font-size="14.00">prev: 5</text>
</g>
<!-- 5&#45;&gt;6 -->
<g id="edge6" class="edge">
<title>5&#45;&gt;6</title>
<path fill="none" stroke="#ece0da" d="M658.1,-176.08C666.28,-175.77 675.06,-175.68 683.59,-175.81"/>
<polygon fill="#ece0da" stroke="#ece0da" points="683.72,-179.31 693.81,-176.08 683.91,-172.32 683.72,-179.31"/>
</g>
<!-- 5&#45;&gt;6 -->
<g id="edge16" class="edge">
<title>5&#45;&gt;6</title>
<path fill="none" stroke="#9cad8c" d="M658.1,-188.92C666.28,-189.23 675.06,-189.32 683.59,-189.19"/>
<polygon fill="#9cad8c" stroke="#9cad8c" points="683.91,-192.68 693.81,-188.92 683.72,-185.69 683.91,-192.68"/>
</g>
<!-- 7 -->
<g id="node8" class="node">
<title>7</title>
<path fill="#f1c8cb" stroke="#9cad8c" d="M817,-136.5C817,-136.5 868,-136.5 868,-136.5 874,-136.5 880,-142.5 880,-148.5 880,-148.5 880,-216.5 880,-216.5 880,-222.5 874,-228.5 868,-228.5 868,-228.5 817,-228.5 817,-228.5 811,-228.5 805,-222.5 805,-216.5 805,-216.5 805,-148.5 805,-148.5 805,-142.5 811,-136.5 817,-136.5"/>
<text text-anchor="middle" x="842.5" y="-213.3" font-family="Times,serif" font-size="14.00">indx: 7</text>
<polyline fill="none" stroke="#9cad8c" points="805,-205.5 880,-205.5 "/>
<text text-anchor="middle" x="842.5" y="-190.3" font-family="Times,serif" font-size="14.00">data: 90</text>
<polyline fill="none" stroke="#9cad8c" points="805,-182.5 880,-182.5 "/>
<text text-anchor="middle" x="842.5" y="-167.3" font-family="Times,serif" font-size="14.00">next: 8</text>
<polyline fill="none" stroke="#9cad8c" points="805,-159.5 880,-159.5 "/>
<text text-anchor="middle" x="842.5" y="-144.3" font-family="Times,serif" font-size="14.00">prev: 6</text>
</g>
<!-- 6&#45;&gt;7 -->
<g id="edge7" class="edge">
<title>6&#45;&gt;7</title>
<path fill="none" stroke="#ece0da" d="M769.1,-176.08C777.28,-175.77 786.06,-175.68 794.59,-175.81"/>
<polygon fill="#ece0da" stroke="#ece0da" points="794.72,-179.31 804.81,-176.08 794.91,-172.32 794.72,-179.31"/>
</g>
<!-- 6&#45;&gt;7 -->
<g id="edge17" class="edge">
<title>6&#45;&gt;7</title>
<path fill="none" stroke="#9cad8c" d="M769.1,-188.92C777.28,-189.23 786.06,-189.32 794.59,-189.19"/>
<polygon fill="#9cad8c" stroke="#9cad8c" points="794.91,-192.68 804.81,-188.92 794.72,-185.69 794.91,-192.68"/>
</g>
<!-- 8 -->
<g id="node9" class="node">
<title>8</title>
<path fill="#f1c8cb" stroke="#9cad8c" d="M928,-136.5C928,-136.5 971,-136.5 971,-136.5 977,-136.5 983,-142.5 983,-148.5 983,-148.5 983,-216.5 983,-216.5 983,-222.5 977,-228.5 971,-228.5 971,-228.5 928,-228.5 928,-228.5 922,-228.5 916,-222.5 916,-216.5 916,-216.5 916,-148.5 916,-148.5 916,-142.5 922,-136.5 928,-136.5"/>
<text text-anchor="middle" x="949.5" y="-213.3" font-family="Times,serif" font-size="14.00">indx: 8</text>
<polyline fill="none" stroke="#9cad8c" points="916,-205.5 983,-205.5 "/>
<text text-anchor="middle" x="949.5" y="-190.3" font-family="Times,serif" font-size="14.00">data: 2</text>
<polyline fill="none" stroke="#9cad8c" points="916,-182.5 983,-182.5 "/>
<text text-anchor="middle" x="949.5" y="-167.3" font-family="Times,serif" font-size="14.00">next: 0</text>
<polyline fill="none" stroke="#9cad8c" points="916,-159.5 983,-159.5 "/>
<text text-anchor="middle" x="949.5" y="-144.3" font-family="Times,serif" font-size="14.00">prev: 7</text>
</g>
<!-- 7&#45;&gt;8 -->
<g id="edge8" class="edge">
<title>7&#45;&gt;8</title>
<path fill="none" stroke="#ece0da" d="M880.22,-176.03C888.46,-175.73 897.28,-175.67 905.74,-175.85"/>
<polygon fill="#ece0da" stroke="#ece0da" points="905.71,-179.36 915.83,-176.2 905.95,-172.36 905.71,-179.36"/>
</g>
<!-- 7&#45;&gt;8 -->
<g id="edge18" class="edge">
<title>7&#45;&gt;8</title>
<path fill="none" stroke="#9cad8c" d="M880.22,-188.97C888.46,-189.27 897.28,-189.33 905.74,-189.15"/>
<polygon fill="#9cad8c" stroke="#9cad8c" points="905.95,-192.64 915.83,-188.8 905.71,-185.64 905.95,-192.64"/>
</g>
<!-- 8&#45;&gt;0 -->
<g id="edge19" class="edge">
<title>8&#45;&gt;0</title>
<path fill="none" stroke="#9cad8c" d="M915.71,-150.23C905.09,-141.51 892.75,-132.98 880,-127.5 819.21,-101.39 798.66,-107.5 732.5,-107.5 397.5,-107.5 397.5,-107.5 397.5,-107.5 285.81,-107.5 253.27,-93.12 147,-127.5 137.91,-130.44 128.78,-134.45 120.01,-138.98"/>
<polygon fill="#9cad8c" stroke="#9cad8c" points="118.13,-136.02 111.01,-143.86 121.47,-142.17 118.13,-136.02"/>
</g>
<!-- 9 -->
<g id="node10" class="node">
<title>9</title>
<path fill="#f1c8cb" stroke="#9cad8c" d="M1031,-136.5C1031,-136.5 1118,-136.5 1118,-136.5 1124,-136.5 1130,-142.5 1130,-148.5 1130,-148.5 1130,-216.5 1130,-216.5 1130,-222.5 1124,-228.5 1118,-228.5 1118,-228.5 1031,-228.5 1031,-228.5 1025,-228.5 1019,-222.5 1019,-216.5 1019,-216.5 1019,-148.5 1019,-148.5 1019,-142.5 1025,-136.5 1031,-136.5"/>
<text text-anchor="middle" x="1074.5" y="-213.3" font-family="Times,serif" font-size="14.00">indx: 9</text>
<polyline fill="none" stroke="#9cad8c" points="1019,-205.5 1130,-205.5 "/>
<text text-anchor="middle" x="1074.5" y="-190.3" font-family="Times,serif" font-size="14.00">data: 228337</text>
<polyline fill="none" stroke="#9cad8c" points="1019,-182.5 1130,-182.5 "/>
<text text-anchor="middle" x="1074.5" y="-167.3" font-family="Times,serif" font-size="14.00">next: 10</text>
<polyline fill="none" stroke="#9cad8c" points="1019,-159.5 1130,-159.5 "/>
<text text-anchor="middle" x="1074.5" y="-144.3" font-family="Times,serif" font-size="14.00">prev: 10</text>
</g>
<!-- 8&#45;&gt;9 -->
<g id="edge9" class="edge">
<title>8&#45;&gt;9</title>
<path fill="none" stroke="#ece0da" d="M983.14,-182.5C991.1,-182.5 999.9,-182.5 1008.79,-182.5"/>
<polygon fill="#ece0da" stroke="#ece0da" points="1008.82,-186 1018.82,-182.5 1008.82,-179 1008.82,-186"/>
</g>
<!-- 10 -->
<g id="node11" class="node">
<title>10</title>
<path fill="#f1c8cb" stroke="#9cad8c" d="M1178,-136.5C1178,-136.5 1265,-136.5 1265,-136.5 1271,-136.5 1277,-142.5 1277,-148.5 1277,-148.5 1277,-216.5 1277,-216.5 1277,-222.5 1271,-228.5 1265,-228.5 1265,-228.5 1178,-228.5 1178,-228.5 1172,-228.5 1166,-222.5 1166,-216.5 1166,-216.5 1166,-148.5 1166,-148.5 1166,-142.5 1172,-136.5 1178,-136.5"/>
<text text-anchor="middle" x="1221.5" y="-213.3" font-family="Times,serif" font-size="14.00">indx: 10</text>
<polyline fill="none" stroke="#9cad8c" points="1166,-205.5 1277,-205.5 "/>
<text text-anchor="middle" x="1221.5" y="-190.3" font-family="Times,serif" font-size="14.00">data: 228337</text>
<polyline fill="none" stroke="#9cad8c" points="1166,-182.5 1277,-182.5 "/>
<text text-anchor="middle" x="1221.5" y="-167.3" font-family="Times,serif" font-size="14.00">next: 9</text>
<polyline fill="none" stroke="#9cad8c" points="1166,-159.5 1277,-159.5 "/>
<text text-anchor="middle" x="1221.5" y="-144.3" font-family="Times,serif" font-size="14.00">prev: 9</text>
</g>
<!-- 9&#45;&gt;10 -->
<g id="edge10" class="edge">
<title>9&#45;&gt;10</title>
<path fill="none" stroke="#ece0da" d="M1130.32,-169.36C1138.53,-169.02 1147.06,-168.92 1155.46,-169.06"/>
<polygon fill="#ece0da" stroke="#ece0da" points="1155.51,-172.57 1165.6,-169.36 1155.71,-165.57 1155.51,-172.57"/>
</g>
<!-- 9&#45;&gt;10 -->
<g id="edge20" class="edge">
<title>9&#45;&gt;10</title>
<path fill="none" stroke="#9cad8c" d="M1130.32,-182.5C1138.53,-182.5 1147.06,-182.5 1155.46,-182.5"/>
<polygon fill="#9cad8c" stroke="#9cad8c" points="1155.6,-186 1165.6,-182.5 1155.6,-179 1155.6,-186"/>
</g>
<!-- 10&#45;&gt;9 -->
<g id="edge21" class="edge">
<title>10&#45;&gt;9</title>
<path fill="none" stroke="#9cad8c" d="M1165.6,-195.64C1157.39,-195.98 1148.86,-196.08 1140.46,-195.93"/>
<polygon fill="#9cad8c" stroke="#9cad8c" points="1140.42,-192.43 1130.32,-195.64 1140.21,-199.43 1140.42,-192.43"/>
</g>
<!-- head -->
<g id="node12" class="node">
<title>head</title>
<path fill="#f6b0bb" stroke="#337357" d="M33,-0.5C33,-0.5 78,-0.5 78,-0.5 84,-0.5 90,-6.5 90,-12.5 90,-12.5 90,-24.5 90,-24.5 90,-30.5 84,-36.5 78,-36.5 78,-36.5 33,-36.5 33,-36.5 27,-36.5 21,-30.5 21,-24.5 21,-24.5 21,-12.5 21,-12.5 21,-6.5 27,-0.5 33,-0.5"/>
<text text-anchor="middle" x="55.5" y="-14.8" font-family="Times,serif" font-size="14.00">head: 1</text>
</g>
<!-- head&#45;&gt;1 -->
<g id="edge24" class="edge">
<title>head&#45;&gt;1</title>
<path fill="none" stroke="#337357" d="M70.13,-36.68C87.09,-59.28 116.74,-98.82 140.89,-131.02"/>
<polygon fill="#337357" stroke="#337357" points="138.1,-133.14 146.9,-139.04 143.7,-128.94 138.1,-133.14"/>
</g>
<!-- tail -->
<g id="node13" class="node">
<title>tail</title>
<path fill="#f6b0bb" stroke="#337357" d="M163.5,-0.5C163.5,-0.5 197.5,-0.5 197.5,-0.5 203.5,-0.5 209.5,-6.5 209.5,-12.5 209.5,-12.5 209.5,-24.5 209.5,-24.5 209.5,-30.5 203.5,-36.5 197.5,-36.5 197.5,-36.5 163.5,-36.5 163.5,-36.5 157.5,-36.5 151.5,-30.5 151.5,-24.5 151.5,-24.5 151.5,-12.5 151.5,-12.5 151.5,-6.5 157.5,-0.5 163.5,-0.5"/>
<text text-anchor="middle" x="180.5" y="-14.8" font-family="Times,serif" font-size="14.00">tail: 8</text>
</g>
<!-- head&#45;&gt;tail -->
<g id="edge22" class="edge">
<title>head&#45;&gt;tail</title>
<path fill="none" stroke="#ece0da" d="M90.11,-18.5C105.86,-18.5 124.72,-18.5 141.04,-18.5"/>
<polygon fill="#ece0da" stroke="#ece0da" points="141.34,-22 151.34,-18.5 141.34,-15 141.34,-22"/>
</g>
<!-- tail&#45;&gt;8 -->
<g id="edge25" class="edge">
<title>tail&#45;&gt;8</title>
<path fill="none" stroke="#337357" d="M209.54,-31.83C221.7,-37.01 236.28,-42.43 250,-45.5 410.6,-81.44 454.93,-69.5 619.5,-69.5 619.5,-69.5 619.5,-69.5 732.5,-69.5 798.92,-69.5 822.97,-59.46 880,-93.5 894.28,-102.02 906.65,-114.75 916.8,-127.93"/>
<polygon fill="#337357" stroke="#337357" points="914.09,-130.16 922.82,-136.16 919.74,-126.02 914.09,-130.16"/>
</g>
<!-- free -->
<g id="node14" class="node">
<title>free</title>
<path fill="#f6b0bb" stroke="#337357" d="M268,-0.5C268,-0.5 307,-0.5 307,-0.5 313,-0.5 319,-6.5 319,-12.5 319,-12.5 319,-24.5 319,-24.5 319,-30.5 313,-36.5 307,-36.5 307,-36.5 268,-36.5 268,-36.5 262,-36.5 256,-30.5 256,-24.5 256,-24.5 256,-12.5 256,-12.5 256,-6.5 262,-0.5 268,-0.5"/>
<text text-anchor="middle" x="287.5" y="-14.8" font-family="Times,serif" font-size="14.00">free: 9</text>
</g>
<!-- tail&#45;&gt;free -->
<g id="edge23" class="edge">
<title>tail&#45;&gt;free</title>
<path fill="none" stroke="#ece0da" d="M209.64,-18.5C220.63,-18.5 233.46,-18.5 245.45,-18.5"/>
<polygon fill="#ece0da" stroke="#ece0da" points="245.7,-22 255.7,-18.5 245.7,-15 245.7,-22"/>
</g>
<!-- free&#45;&gt;9 -->
<g id="edge26" class="edge">
<title>free&#45;&gt;9</title>
<path fill="none" stroke="#337357" d="M319.01,-16C408.07,-9.72 674.37,1.7 880,-65.5 926.81,-80.8 974.21,-109.2 1010.38,-134.18"/>
<polygon fill="#337357" stroke="#337357" points="1008.65,-137.25 1018.85,-140.12 1012.67,-131.52 1008.65,-137.25"/>
</g>
</g>
</svg>
