<?xml version="1.0" encoding="UTF-8" standalone="no"?>
<!DOCTYPE svg PUBLIC "-//W3C//DTD SVG 1.1//EN"
 "http://www.w3.org/Graphics/SVG/1.1/DTD/svg11.dtd">
<!-- Generated by graphviz version 2.43.0 (0)
 -->
<!-- Title: List Pages: 1 -->
<svg width="1219pt" height="237pt"
 viewBox="0.00 0.00 1219.00 237.00" xmlns="http://www.w3.org/2000/svg" xmlns:xlink="http://www.w3.org/1999/xlink">
<g id="graph0" class="graph" transform="scale(1 1) rotate(0) translate(4 233)">
<title>List</title>
<polygon fill="#ece0da" stroke="transparent" points="-4,4 -4,-233 1215,-233 1215,4 -4,4"/>
<!-- 0 -->
<g id="node1" class="node">
<title>0</title>
<path fill="#f1c8cb" stroke="#9cad8c" d="M12,-136.5C12,-136.5 77,-136.5 77,-136.5 83,-136.5 89,-142.5 89,-148.5 89,-148.5 89,-216.5 89,-216.5 89,-222.5 83,-228.5 77,-228.5 77,-228.5 12,-228.5 12,-228.5 6,-228.5 0,-222.5 0,-216.5 0,-216.5 0,-148.5 0,-148.5 0,-142.5 6,-136.5 12,-136.5"/>
<text text-anchor="middle" x="44.5" y="-213.3" font-family="Times,serif" font-size="14.00">indx: 0</text>
<polyline fill="none" stroke="#9cad8c" points="0,-205.5 89,-205.5 "/>
<text text-anchor="middle" x="44.5" y="-190.3" font-family="Times,serif" font-size="14.00">data: &#45;666</text>
<polyline fill="none" stroke="#9cad8c" points="0,-182.5 89,-182.5 "/>
<text text-anchor="middle" x="44.5" y="-167.3" font-family="Times,serif" font-size="14.00">next: 1</text>
<polyline fill="none" stroke="#9cad8c" points="0,-159.5 89,-159.5 "/>
<text text-anchor="middle" x="44.5" y="-144.3" font-family="Times,serif" font-size="14.00">prev: 8</text>
</g>
<!-- 1 -->
<g id="node2" class="node">
<title>1</title>
<path fill="#f1c8cb" stroke="#9cad8c" d="M137,-136.5C137,-136.5 180,-136.5 180,-136.5 186,-136.5 192,-142.5 192,-148.5 192,-148.5 192,-216.5 192,-216.5 192,-222.5 186,-228.5 180,-228.5 180,-228.5 137,-228.5 137,-228.5 131,-228.5 125,-222.5 125,-216.5 125,-216.5 125,-148.5 125,-148.5 125,-142.5 131,-136.5 137,-136.5"/>
<text text-anchor="middle" x="158.5" y="-213.3" font-family="Times,serif" font-size="14.00">indx: 1</text>
<polyline fill="none" stroke="#9cad8c" points="125,-205.5 192,-205.5 "/>
<text text-anchor="middle" x="158.5" y="-190.3" font-family="Times,serif" font-size="14.00">data: 1</text>
<polyline fill="none" stroke="#9cad8c" points="125,-182.5 192,-182.5 "/>
<text text-anchor="middle" x="158.5" y="-167.3" font-family="Times,serif" font-size="14.00">next: 2</text>
<polyline fill="none" stroke="#9cad8c" points="125,-159.5 192,-159.5 "/>
<text text-anchor="middle" x="158.5" y="-144.3" font-family="Times,serif" font-size="14.00">prev: 0</text>
</g>
<!-- 0&#45;&gt;1 -->
<g id="edge1" class="edge">
<title>0&#45;&gt;1</title>
<path fill="none" stroke="#ece0da" d="M89.12,-175.9C97.59,-175.69 106.46,-175.7 114.9,-175.92"/>
<polygon fill="#ece0da" stroke="#ece0da" points="114.8,-179.42 124.92,-176.3 115.06,-172.43 114.8,-179.42"/>
</g>
<!-- 0&#45;&gt;1 -->
<g id="edge11" class="edge">
<title>0&#45;&gt;1</title>
<path fill="none" stroke="#9cad8c" d="M89.12,-189.1C97.59,-189.31 106.46,-189.3 114.9,-189.08"/>
<polygon fill="#9cad8c" stroke="#9cad8c" points="115.06,-192.57 124.92,-188.7 114.8,-185.58 115.06,-192.57"/>
</g>
<!-- 2 -->
<g id="node3" class="node">
<title>2</title>
<path fill="#f1c8cb" stroke="#9cad8c" d="M240,-136.5C240,-136.5 291,-136.5 291,-136.5 297,-136.5 303,-142.5 303,-148.5 303,-148.5 303,-216.5 303,-216.5 303,-222.5 297,-228.5 291,-228.5 291,-228.5 240,-228.5 240,-228.5 234,-228.5 228,-222.5 228,-216.5 228,-216.5 228,-148.5 228,-148.5 228,-142.5 234,-136.5 240,-136.5"/>
<text text-anchor="middle" x="265.5" y="-213.3" font-family="Times,serif" font-size="14.00">indx: 2</text>
<polyline fill="none" stroke="#9cad8c" points="228,-205.5 303,-205.5 "/>
<text text-anchor="middle" x="265.5" y="-190.3" font-family="Times,serif" font-size="14.00">data: 20</text>
<polyline fill="none" stroke="#9cad8c" points="228,-182.5 303,-182.5 "/>
<text text-anchor="middle" x="265.5" y="-167.3" font-family="Times,serif" font-size="14.00">next: 3</text>
<polyline fill="none" stroke="#9cad8c" points="228,-159.5 303,-159.5 "/>
<text text-anchor="middle" x="265.5" y="-144.3" font-family="Times,serif" font-size="14.00">prev: 1</text>
</g>
<!-- 1&#45;&gt;2 -->
<g id="edge2" class="edge">
<title>1&#45;&gt;2</title>
<path fill="none" stroke="#ece0da" d="M192.15,-176.2C200.28,-175.81 209.16,-175.68 217.83,-175.79"/>
<polygon fill="#ece0da" stroke="#ece0da" points="217.76,-179.29 227.85,-176.03 217.93,-172.29 217.76,-179.29"/>
</g>
<!-- 1&#45;&gt;2 -->
<g id="edge12" class="edge">
<title>1&#45;&gt;2</title>
<path fill="none" stroke="#9cad8c" d="M192.15,-188.8C200.28,-189.19 209.16,-189.32 217.83,-189.21"/>
<polygon fill="#9cad8c" stroke="#9cad8c" points="217.93,-192.71 227.85,-188.97 217.76,-185.71 217.93,-192.71"/>
</g>
<!-- 3 -->
<g id="node4" class="node">
<title>3</title>
<path fill="#f1c8cb" stroke="#9cad8c" d="M351,-136.5C351,-136.5 402,-136.5 402,-136.5 408,-136.5 414,-142.5 414,-148.5 414,-148.5 414,-216.5 414,-216.5 414,-222.5 408,-228.5 402,-228.5 402,-228.5 351,-228.5 351,-228.5 345,-228.5 339,-222.5 339,-216.5 339,-216.5 339,-148.5 339,-148.5 339,-142.5 345,-136.5 351,-136.5"/>
<text text-anchor="middle" x="376.5" y="-213.3" font-family="Times,serif" font-size="14.00">indx: 3</text>
<polyline fill="none" stroke="#9cad8c" points="339,-205.5 414,-205.5 "/>
<text text-anchor="middle" x="376.5" y="-190.3" font-family="Times,serif" font-size="14.00">data: 30</text>
<polyline fill="none" stroke="#9cad8c" points="339,-182.5 414,-182.5 "/>
<text text-anchor="middle" x="376.5" y="-167.3" font-family="Times,serif" font-size="14.00">next: 4</text>
<polyline fill="none" stroke="#9cad8c" points="339,-159.5 414,-159.5 "/>
<text text-anchor="middle" x="376.5" y="-144.3" font-family="Times,serif" font-size="14.00">prev: 2</text>
</g>
<!-- 2&#45;&gt;3 -->
<g id="edge3" class="edge">
<title>2&#45;&gt;3</title>
<path fill="none" stroke="#ece0da" d="M303.1,-176.08C311.28,-175.77 320.06,-175.68 328.59,-175.81"/>
<polygon fill="#ece0da" stroke="#ece0da" points="328.72,-179.31 338.81,-176.08 328.91,-172.32 328.72,-179.31"/>
</g>
<!-- 2&#45;&gt;3 -->
<g id="edge13" class="edge">
<title>2&#45;&gt;3</title>
<path fill="none" stroke="#9cad8c" d="M303.1,-188.92C311.28,-189.23 320.06,-189.32 328.59,-189.19"/>
<polygon fill="#9cad8c" stroke="#9cad8c" points="328.91,-192.68 338.81,-188.92 328.72,-185.69 328.91,-192.68"/>
</g>
<!-- 4 -->
<g id="node5" class="node">
<title>4</title>
<path fill="#f1c8cb" stroke="#9cad8c" d="M462,-136.5C462,-136.5 513,-136.5 513,-136.5 519,-136.5 525,-142.5 525,-148.5 525,-148.5 525,-216.5 525,-216.5 525,-222.5 519,-228.5 513,-228.5 513,-228.5 462,-228.5 462,-228.5 456,-228.5 450,-222.5 450,-216.5 450,-216.5 450,-148.5 450,-148.5 450,-142.5 456,-136.5 462,-136.5"/>
<text text-anchor="middle" x="487.5" y="-213.3" font-family="Times,serif" font-size="14.00">indx: 4</text>
<polyline fill="none" stroke="#9cad8c" points="450,-205.5 525,-205.5 "/>
<text text-anchor="middle" x="487.5" y="-190.3" font-family="Times,serif" font-size="14.00">data: 40</text>
<polyline fill="none" stroke="#9cad8c" points="450,-182.5 525,-182.5 "/>
<text text-anchor="middle" x="487.5" y="-167.3" font-family="Times,serif" font-size="14.00">next: 5</text>
<polyline fill="none" stroke="#9cad8c" points="450,-159.5 525,-159.5 "/>
<text text-anchor="middle" x="487.5" y="-144.3" font-family="Times,serif" font-size="14.00">prev: 3</text>
</g>
<!-- 3&#45;&gt;4 -->
<g id="edge4" class="edge">
<title>3&#45;&gt;4</title>
<path fill="none" stroke="#ece0da" d="M414.1,-176.08C422.28,-175.77 431.06,-175.68 439.59,-175.81"/>
<polygon fill="#ece0da" stroke="#ece0da" points="439.72,-179.31 449.81,-176.08 439.91,-172.32 439.72,-179.31"/>
</g>
<!-- 3&#45;&gt;4 -->
<g id="edge14" class="edge">
<title>3&#45;&gt;4</title>
<path fill="none" stroke="#9cad8c" d="M414.1,-188.92C422.28,-189.23 431.06,-189.32 439.59,-189.19"/>
<polygon fill="#9cad8c" stroke="#9cad8c" points="439.91,-192.68 449.81,-188.92 439.72,-185.69 439.91,-192.68"/>
</g>
<!-- 5 -->
<g id="node6" class="node">
<title>5</title>
<path fill="#f1c8cb" stroke="#9cad8c" d="M573,-136.5C573,-136.5 624,-136.5 624,-136.5 630,-136.5 636,-142.5 636,-148.5 636,-148.5 636,-216.5 636,-216.5 636,-222.5 630,-228.5 624,-228.5 624,-228.5 573,-228.5 573,-228.5 567,-228.5 561,-222.5 561,-216.5 561,-216.5 561,-148.5 561,-148.5 561,-142.5 567,-136.5 573,-136.5"/>
<text text-anchor="middle" x="598.5" y="-213.3" font-family="Times,serif" font-size="14.00">indx: 5</text>
<polyline fill="none" stroke="#9cad8c" points="561,-205.5 636,-205.5 "/>
<text text-anchor="middle" x="598.5" y="-190.3" font-family="Times,serif" font-size="14.00">data: 70</text>
<polyline fill="none" stroke="#9cad8c" points="561,-182.5 636,-182.5 "/>
<text text-anchor="middle" x="598.5" y="-167.3" font-family="Times,serif" font-size="14.00">next: 6</text>
<polyline fill="none" stroke="#9cad8c" points="561,-159.5 636,-159.5 "/>
<text text-anchor="middle" x="598.5" y="-144.3" font-family="Times,serif" font-size="14.00">prev: 4</text>
</g>
<!-- 4&#45;&gt;5 -->
<g id="edge5" class="edge">
<title>4&#45;&gt;5</title>
<path fill="none" stroke="#ece0da" d="M525.1,-176.08C533.28,-175.77 542.06,-175.68 550.59,-175.81"/>
<polygon fill="#ece0da" stroke="#ece0da" points="550.72,-179.31 560.81,-176.08 550.91,-172.32 550.72,-179.31"/>
</g>
<!-- 4&#45;&gt;5 -->
<g id="edge15" class="edge">
<title>4&#45;&gt;5</title>
<path fill="none" stroke="#9cad8c" d="M525.1,-188.92C533.28,-189.23 542.06,-189.32 550.59,-189.19"/>
<polygon fill="#9cad8c" stroke="#9cad8c" points="550.91,-192.68 560.81,-188.92 550.72,-185.69 550.91,-192.68"/>
</g>
<!-- 6 -->
<g id="node7" class="node">
<title>6</title>
<path fill="#f1c8cb" stroke="#9cad8c" d="M684,-136.5C684,-136.5 735,-136.5 735,-136.5 741,-136.5 747,-142.5 747,-148.5 747,-148.5 747,-216.5 747,-216.5 747,-222.5 741,-228.5 735,-228.5 735,-228.5 684,-228.5 684,-228.5 678,-228.5 672,-222.5 672,-216.5 672,-216.5 672,-148.5 672,-148.5 672,-142.5 678,-136.5 684,-136.5"/>
<text text-anchor="middle" x="709.5" y="-213.3" font-family="Times,serif" font-size="14.00">indx: 6</text>
<polyline fill="none" stroke="#9cad8c" points="672,-205.5 747,-205.5 "/>
<text text-anchor="middle" x="709.5" y="-190.3" font-family="Times,serif" font-size="14.00">data: 80</text>
<polyline fill="none" stroke="#9cad8c" points="672,-182.5 747,-182.5 "/>
<text text-anchor="middle" x="709.5" y="-167.3" font-family="Times,serif" font-size="14.00">next: 7</text>
<polyline fill="none" stroke="#9cad8c" points="672,-159.5 747,-159.5 "/>
<text text-anchor="middle" x="709.5" y="-144.3" font-family="Times,serif" font-size="14.00">prev: 5</text>
</g>
<!-- 5&#45;&gt;6 -->
<g id="edge6" class="edge">
<title>5&#45;&gt;6</title>
<path fill="none" stroke="#ece0da" d="M636.1,-176.08C644.28,-175.77 653.06,-175.68 661.59,-175.81"/>
<polygon fill="#ece0da" stroke="#ece0da" points="661.72,-179.31 671.81,-176.08 661.91,-172.32 661.72,-179.31"/>
</g>
<!-- 5&#45;&gt;6 -->
<g id="edge16" class="edge">
<title>5&#45;&gt;6</title>
<path fill="none" stroke="#9cad8c" d="M636.1,-188.92C644.28,-189.23 653.06,-189.32 661.59,-189.19"/>
<polygon fill="#9cad8c" stroke="#9cad8c" points="661.91,-192.68 671.81,-188.92 661.72,-185.69 661.91,-192.68"/>
</g>
<!-- 7 -->
<g id="node8" class="node">
<title>7</title>
<path fill="#f1c8cb" stroke="#9cad8c" d="M795,-136.5C795,-136.5 846,-136.5 846,-136.5 852,-136.5 858,-142.5 858,-148.5 858,-148.5 858,-216.5 858,-216.5 858,-222.5 852,-228.5 846,-228.5 846,-228.5 795,-228.5 795,-228.5 789,-228.5 783,-222.5 783,-216.5 783,-216.5 783,-148.5 783,-148.5 783,-142.5 789,-136.5 795,-136.5"/>
<text text-anchor="middle" x="820.5" y="-213.3" font-family="Times,serif" font-size="14.00">indx: 7</text>
<polyline fill="none" stroke="#9cad8c" points="783,-205.5 858,-205.5 "/>
<text text-anchor="middle" x="820.5" y="-190.3" font-family="Times,serif" font-size="14.00">data: 90</text>
<polyline fill="none" stroke="#9cad8c" points="783,-182.5 858,-182.5 "/>
<text text-anchor="middle" x="820.5" y="-167.3" font-family="Times,serif" font-size="14.00">next: 8</text>
<polyline fill="none" stroke="#9cad8c" points="783,-159.5 858,-159.5 "/>
<text text-anchor="middle" x="820.5" y="-144.3" font-family="Times,serif" font-size="14.00">prev: 6</text>
</g>
<!-- 6&#45;&gt;7 -->
<g id="edge7" class="edge">
<title>6&#45;&gt;7</title>
<path fill="none" stroke="#ece0da" d="M747.1,-176.08C755.28,-175.77 764.06,-175.68 772.59,-175.81"/>
<polygon fill="#ece0da" stroke="#ece0da" points="772.72,-179.31 782.81,-176.08 772.91,-172.32 772.72,-179.31"/>
</g>
<!-- 6&#45;&gt;7 -->
<g id="edge17" class="edge">
<title>6&#45;&gt;7</title>
<path fill="none" stroke="#9cad8c" d="M747.1,-188.92C755.28,-189.23 764.06,-189.32 772.59,-189.19"/>
<polygon fill="#9cad8c" stroke="#9cad8c" points="772.91,-192.68 782.81,-188.92 772.72,-185.69 772.91,-192.68"/>
</g>
<!-- 8 -->
<g id="node9" class="node">
<title>8</title>
<path fill="#f1c8cb" stroke="#9cad8c" d="M906,-136.5C906,-136.5 949,-136.5 949,-136.5 955,-136.5 961,-142.5 961,-148.5 961,-148.5 961,-216.5 961,-216.5 961,-222.5 955,-228.5 949,-228.5 949,-228.5 906,-228.5 906,-228.5 900,-228.5 894,-222.5 894,-216.5 894,-216.5 894,-148.5 894,-148.5 894,-142.5 900,-136.5 906,-136.5"/>
<text text-anchor="middle" x="927.5" y="-213.3" font-family="Times,serif" font-size="14.00">indx: 8</text>
<polyline fill="none" stroke="#9cad8c" points="894,-205.5 961,-205.5 "/>
<text text-anchor="middle" x="927.5" y="-190.3" font-family="Times,serif" font-size="14.00">data: 2</text>
<polyline fill="none" stroke="#9cad8c" points="894,-182.5 961,-182.5 "/>
<text text-anchor="middle" x="927.5" y="-167.3" font-family="Times,serif" font-size="14.00">next: 0</text>
<polyline fill="none" stroke="#9cad8c" points="894,-159.5 961,-159.5 "/>
<text text-anchor="middle" x="927.5" y="-144.3" font-family="Times,serif" font-size="14.00">prev: 7</text>
</g>
<!-- 7&#45;&gt;8 -->
<g id="edge8" class="edge">
<title>7&#45;&gt;8</title>
<path fill="none" stroke="#ece0da" d="M858.22,-176.03C866.46,-175.73 875.28,-175.67 883.74,-175.85"/>
<polygon fill="#ece0da" stroke="#ece0da" points="883.71,-179.36 893.83,-176.2 883.95,-172.36 883.71,-179.36"/>
</g>
<!-- 7&#45;&gt;8 -->
<g id="edge18" class="edge">
<title>7&#45;&gt;8</title>
<path fill="none" stroke="#9cad8c" d="M858.22,-188.97C866.46,-189.27 875.28,-189.33 883.74,-189.15"/>
<polygon fill="#9cad8c" stroke="#9cad8c" points="883.95,-192.64 893.83,-188.8 883.71,-185.64 883.95,-192.64"/>
</g>
<!-- 8&#45;&gt;0 -->
<g id="edge19" class="edge">
<title>8&#45;&gt;0</title>
<path fill="none" stroke="#9cad8c" d="M893.71,-150.23C883.09,-141.51 870.75,-132.98 858,-127.5 797.21,-101.39 776.66,-107.5 710.5,-107.5 375.5,-107.5 375.5,-107.5 375.5,-107.5 263.81,-107.5 230.2,-90 125,-127.5 115.63,-130.84 106.34,-135.58 97.6,-140.89"/>
<polygon fill="#9cad8c" stroke="#9cad8c" points="95.58,-138.03 89.05,-146.37 99.36,-143.92 95.58,-138.03"/>
</g>
<!-- 9 -->
<g id="node10" class="node">
<title>9</title>
<path fill="#f1c8cb" stroke="#9cad8c" d="M1009,-136.5C1009,-136.5 1074,-136.5 1074,-136.5 1080,-136.5 1086,-142.5 1086,-148.5 1086,-148.5 1086,-216.5 1086,-216.5 1086,-222.5 1080,-228.5 1074,-228.5 1074,-228.5 1009,-228.5 1009,-228.5 1003,-228.5 997,-222.5 997,-216.5 997,-216.5 997,-148.5 997,-148.5 997,-142.5 1003,-136.5 1009,-136.5"/>
<text text-anchor="middle" x="1041.5" y="-213.3" font-family="Times,serif" font-size="14.00">indx: 9</text>
<polyline fill="none" stroke="#9cad8c" points="997,-205.5 1086,-205.5 "/>
<text text-anchor="middle" x="1041.5" y="-190.3" font-family="Times,serif" font-size="14.00">data: &#45;666</text>
<polyline fill="none" stroke="#9cad8c" points="997,-182.5 1086,-182.5 "/>
<text text-anchor="middle" x="1041.5" y="-167.3" font-family="Times,serif" font-size="14.00">next: 10</text>
<polyline fill="none" stroke="#9cad8c" points="997,-159.5 1086,-159.5 "/>
<text text-anchor="middle" x="1041.5" y="-144.3" font-family="Times,serif" font-size="14.00">prev: 10</text>
</g>
<!-- 8&#45;&gt;9 -->
<g id="edge9" class="edge">
<title>8&#45;&gt;9</title>
<path fill="none" stroke="#ece0da" d="M961.2,-182.5C969.18,-182.5 977.93,-182.5 986.61,-182.5"/>
<polygon fill="#ece0da" stroke="#ece0da" points="986.72,-186 996.72,-182.5 986.72,-179 986.72,-186"/>
</g>
<!-- 10 -->
<g id="node11" class="node">
<title>10</title>
<path fill="#f1c8cb" stroke="#9cad8c" d="M1134,-136.5C1134,-136.5 1199,-136.5 1199,-136.5 1205,-136.5 1211,-142.5 1211,-148.5 1211,-148.5 1211,-216.5 1211,-216.5 1211,-222.5 1205,-228.5 1199,-228.5 1199,-228.5 1134,-228.5 1134,-228.5 1128,-228.5 1122,-222.5 1122,-216.5 1122,-216.5 1122,-148.5 1122,-148.5 1122,-142.5 1128,-136.5 1134,-136.5"/>
<text text-anchor="middle" x="1166.5" y="-213.3" font-family="Times,serif" font-size="14.00">indx: 10</text>
<polyline fill="none" stroke="#9cad8c" points="1122,-205.5 1211,-205.5 "/>
<text text-anchor="middle" x="1166.5" y="-190.3" font-family="Times,serif" font-size="14.00">data: &#45;666</text>
<polyline fill="none" stroke="#9cad8c" points="1122,-182.5 1211,-182.5 "/>
<text text-anchor="middle" x="1166.5" y="-167.3" font-family="Times,serif" font-size="14.00">next: 9</text>
<polyline fill="none" stroke="#9cad8c" points="1122,-159.5 1211,-159.5 "/>
<text text-anchor="middle" x="1166.5" y="-144.3" font-family="Times,serif" font-size="14.00">prev: 9</text>
</g>
<!-- 9&#45;&gt;10 -->
<g id="edge10" class="edge">
<title>9&#45;&gt;10</title>
<path fill="none" stroke="#ece0da" d="M1086.21,-169.51C1094.46,-169.02 1103.17,-168.88 1111.69,-169.09"/>
<polygon fill="#ece0da" stroke="#ece0da" points="1111.79,-172.6 1121.93,-169.52 1112.08,-165.61 1111.79,-172.6"/>
</g>
<!-- 9&#45;&gt;10 -->
<g id="edge20" class="edge">
<title>9&#45;&gt;10</title>
<path fill="none" stroke="#9cad8c" d="M1086.21,-182.5C1094.46,-182.5 1103.17,-182.5 1111.69,-182.5"/>
<polygon fill="#9cad8c" stroke="#9cad8c" points="1111.93,-186 1121.93,-182.5 1111.93,-179 1111.93,-186"/>
</g>
<!-- 10&#45;&gt;9 -->
<g id="edge21" class="edge">
<title>10&#45;&gt;9</title>
<path fill="none" stroke="#9cad8c" d="M1121.93,-195.48C1113.69,-195.97 1104.97,-196.11 1096.46,-195.91"/>
<polygon fill="#9cad8c" stroke="#9cad8c" points="1096.35,-192.4 1086.21,-195.49 1096.06,-199.4 1096.35,-192.4"/>
</g>
<!-- head -->
<g id="node12" class="node">
<title>head</title>
<path fill="#f6b0bb" stroke="#337357" d="M22,-0.5C22,-0.5 67,-0.5 67,-0.5 73,-0.5 79,-6.5 79,-12.5 79,-12.5 79,-24.5 79,-24.5 79,-30.5 73,-36.5 67,-36.5 67,-36.5 22,-36.5 22,-36.5 16,-36.5 10,-30.5 10,-24.5 10,-24.5 10,-12.5 10,-12.5 10,-6.5 16,-0.5 22,-0.5"/>
<text text-anchor="middle" x="44.5" y="-14.8" font-family="Times,serif" font-size="14.00">head: 1</text>
</g>
<!-- head&#45;&gt;1 -->
<g id="edge24" class="edge">
<title>head&#45;&gt;1</title>
<path fill="none" stroke="#337357" d="M57.91,-36.68C72.87,-58.57 98.67,-96.36 120.26,-127.97"/>
<polygon fill="#337357" stroke="#337357" points="117.41,-130 125.94,-136.29 123.19,-126.06 117.41,-130"/>
</g>
<!-- tail -->
<g id="node13" class="node">
<title>tail</title>
<path fill="#f6b0bb" stroke="#337357" d="M141.5,-0.5C141.5,-0.5 175.5,-0.5 175.5,-0.5 181.5,-0.5 187.5,-6.5 187.5,-12.5 187.5,-12.5 187.5,-24.5 187.5,-24.5 187.5,-30.5 181.5,-36.5 175.5,-36.5 175.5,-36.5 141.5,-36.5 141.5,-36.5 135.5,-36.5 129.5,-30.5 129.5,-24.5 129.5,-24.5 129.5,-12.5 129.5,-12.5 129.5,-6.5 135.5,-0.5 141.5,-0.5"/>
<text text-anchor="middle" x="158.5" y="-14.8" font-family="Times,serif" font-size="14.00">tail: 8</text>
</g>
<!-- head&#45;&gt;tail -->
<g id="edge22" class="edge">
<title>head&#45;&gt;tail</title>
<path fill="none" stroke="#ece0da" d="M79.1,-18.5C91.71,-18.5 106.14,-18.5 119.14,-18.5"/>
<polygon fill="#ece0da" stroke="#ece0da" points="119.21,-22 129.21,-18.5 119.21,-15 119.21,-22"/>
</g>
<!-- tail&#45;&gt;8 -->
<g id="edge25" class="edge">
<title>tail&#45;&gt;8</title>
<path fill="none" stroke="#337357" d="M187.54,-31.83C199.7,-37.01 214.28,-42.43 228,-45.5 388.6,-81.44 432.93,-69.5 597.5,-69.5 597.5,-69.5 597.5,-69.5 710.5,-69.5 776.92,-69.5 800.97,-59.46 858,-93.5 872.28,-102.02 884.65,-114.75 894.8,-127.93"/>
<polygon fill="#337357" stroke="#337357" points="892.09,-130.16 900.82,-136.16 897.74,-126.02 892.09,-130.16"/>
</g>
<!-- free -->
<g id="node14" class="node">
<title>free</title>
<path fill="#f6b0bb" stroke="#337357" d="M246,-0.5C246,-0.5 285,-0.5 285,-0.5 291,-0.5 297,-6.5 297,-12.5 297,-12.5 297,-24.5 297,-24.5 297,-30.5 291,-36.5 285,-36.5 285,-36.5 246,-36.5 246,-36.5 240,-36.5 234,-30.5 234,-24.5 234,-24.5 234,-12.5 234,-12.5 234,-6.5 240,-0.5 246,-0.5"/>
<text text-anchor="middle" x="265.5" y="-14.8" font-family="Times,serif" font-size="14.00">free: 9</text>
</g>
<!-- tail&#45;&gt;free -->
<g id="edge23" class="edge">
<title>tail&#45;&gt;free</title>
<path fill="none" stroke="#ece0da" d="M187.64,-18.5C198.63,-18.5 211.46,-18.5 223.45,-18.5"/>
<polygon fill="#ece0da" stroke="#ece0da" points="223.7,-22 233.7,-18.5 223.7,-15 223.7,-22"/>
</g>
<!-- free&#45;&gt;9 -->
<g id="edge26" class="edge">
<title>free&#45;&gt;9</title>
<path fill="none" stroke="#337357" d="M297.01,-16C386.07,-9.72 652.37,1.7 858,-65.5 906.19,-81.25 954.19,-112.82 988.87,-139.2"/>
<polygon fill="#337357" stroke="#337357" points="986.89,-142.09 996.94,-145.43 991.16,-136.55 986.89,-142.09"/>
</g>
</g>
</svg>
