<?xml version="1.0" encoding="UTF-8" standalone="no"?>
<!DOCTYPE svg PUBLIC "-//W3C//DTD SVG 1.1//EN"
 "http://www.w3.org/Graphics/SVG/1.1/DTD/svg11.dtd">
<!-- Generated by graphviz version 2.43.0 (0)
 -->
<!-- Title: List Pages: 1 -->
<svg width="1027pt" height="236pt"
 viewBox="0.00 0.00 1027.00 236.00" xmlns="http://www.w3.org/2000/svg" xmlns:xlink="http://www.w3.org/1999/xlink">
<g id="graph0" class="graph" transform="scale(1 1) rotate(0) translate(4 232)">
<title>List</title>
<polygon fill="#ece0da" stroke="transparent" points="-4,4 -4,-232 1023,-232 1023,4 -4,4"/>
<!-- 0 -->
<g id="node1" class="node">
<title>0</title>
<path fill="#f1c8cb" stroke="#9cad8c" d="M12,-135.5C12,-135.5 77,-135.5 77,-135.5 83,-135.5 89,-141.5 89,-147.5 89,-147.5 89,-215.5 89,-215.5 89,-221.5 83,-227.5 77,-227.5 77,-227.5 12,-227.5 12,-227.5 6,-227.5 0,-221.5 0,-215.5 0,-215.5 0,-147.5 0,-147.5 0,-141.5 6,-135.5 12,-135.5"/>
<text text-anchor="middle" x="44.5" y="-212.3" font-family="Times,serif" font-size="14.00">indx: 0</text>
<polyline fill="none" stroke="#9cad8c" points="0,-204.5 89,-204.5 "/>
<text text-anchor="middle" x="44.5" y="-189.3" font-family="Times,serif" font-size="14.00">data: &#45;666</text>
<polyline fill="none" stroke="#9cad8c" points="0,-181.5 89,-181.5 "/>
<text text-anchor="middle" x="44.5" y="-166.3" font-family="Times,serif" font-size="14.00">next: 1</text>
<polyline fill="none" stroke="#9cad8c" points="0,-158.5 89,-158.5 "/>
<text text-anchor="middle" x="44.5" y="-143.3" font-family="Times,serif" font-size="14.00">prev: 5</text>
</g>
<!-- 1 -->
<g id="node2" class="node">
<title>1</title>
<path fill="#f1c8cb" stroke="#9cad8c" d="M137,-135.5C137,-135.5 188,-135.5 188,-135.5 194,-135.5 200,-141.5 200,-147.5 200,-147.5 200,-215.5 200,-215.5 200,-221.5 194,-227.5 188,-227.5 188,-227.5 137,-227.5 137,-227.5 131,-227.5 125,-221.5 125,-215.5 125,-215.5 125,-147.5 125,-147.5 125,-141.5 131,-135.5 137,-135.5"/>
<text text-anchor="middle" x="162.5" y="-212.3" font-family="Times,serif" font-size="14.00">indx: 1</text>
<polyline fill="none" stroke="#9cad8c" points="125,-204.5 200,-204.5 "/>
<text text-anchor="middle" x="162.5" y="-189.3" font-family="Times,serif" font-size="14.00">data: 10</text>
<polyline fill="none" stroke="#9cad8c" points="125,-181.5 200,-181.5 "/>
<text text-anchor="middle" x="162.5" y="-166.3" font-family="Times,serif" font-size="14.00">next: 2</text>
<polyline fill="none" stroke="#9cad8c" points="125,-158.5 200,-158.5 "/>
<text text-anchor="middle" x="162.5" y="-143.3" font-family="Times,serif" font-size="14.00">prev: 0</text>
</g>
<!-- 0&#45;&gt;1 -->
<g id="edge1" class="edge">
<title>0&#45;&gt;1</title>
<path fill="none" stroke="#ece0da" d="M89.02,-174.94C97.43,-174.71 106.28,-174.69 114.78,-174.86"/>
<polygon fill="#ece0da" stroke="#ece0da" points="114.84,-178.37 124.94,-175.18 115.05,-171.37 114.84,-178.37"/>
</g>
<!-- 0&#45;&gt;1 -->
<g id="edge9" class="edge">
<title>0&#45;&gt;1</title>
<path fill="none" stroke="#9cad8c" d="M89.02,-188.06C97.43,-188.29 106.28,-188.31 114.78,-188.14"/>
<polygon fill="#9cad8c" stroke="#9cad8c" points="115.05,-191.63 124.94,-187.82 114.84,-184.63 115.05,-191.63"/>
</g>
<!-- 2 -->
<g id="node3" class="node">
<title>2</title>
<path fill="#f1c8cb" stroke="#9cad8c" d="M248,-135.5C248,-135.5 299,-135.5 299,-135.5 305,-135.5 311,-141.5 311,-147.5 311,-147.5 311,-215.5 311,-215.5 311,-221.5 305,-227.5 299,-227.5 299,-227.5 248,-227.5 248,-227.5 242,-227.5 236,-221.5 236,-215.5 236,-215.5 236,-147.5 236,-147.5 236,-141.5 242,-135.5 248,-135.5"/>
<text text-anchor="middle" x="273.5" y="-212.3" font-family="Times,serif" font-size="14.00">indx: 2</text>
<polyline fill="none" stroke="#9cad8c" points="236,-204.5 311,-204.5 "/>
<text text-anchor="middle" x="273.5" y="-189.3" font-family="Times,serif" font-size="14.00">data: 20</text>
<polyline fill="none" stroke="#9cad8c" points="236,-181.5 311,-181.5 "/>
<text text-anchor="middle" x="273.5" y="-166.3" font-family="Times,serif" font-size="14.00">next: 3</text>
<polyline fill="none" stroke="#9cad8c" points="236,-158.5 311,-158.5 "/>
<text text-anchor="middle" x="273.5" y="-143.3" font-family="Times,serif" font-size="14.00">prev: 1</text>
</g>
<!-- 1&#45;&gt;2 -->
<g id="edge2" class="edge">
<title>1&#45;&gt;2</title>
<path fill="none" stroke="#ece0da" d="M200.1,-175.08C208.28,-174.77 217.06,-174.68 225.59,-174.81"/>
<polygon fill="#ece0da" stroke="#ece0da" points="225.72,-178.31 235.81,-175.08 225.91,-171.32 225.72,-178.31"/>
</g>
<!-- 1&#45;&gt;2 -->
<g id="edge10" class="edge">
<title>1&#45;&gt;2</title>
<path fill="none" stroke="#9cad8c" d="M200.1,-187.92C208.28,-188.23 217.06,-188.32 225.59,-188.19"/>
<polygon fill="#9cad8c" stroke="#9cad8c" points="225.91,-191.68 235.81,-187.92 225.72,-184.69 225.91,-191.68"/>
</g>
<!-- 3 -->
<g id="node4" class="node">
<title>3</title>
<path fill="#f1c8cb" stroke="#9cad8c" d="M359,-135.5C359,-135.5 410,-135.5 410,-135.5 416,-135.5 422,-141.5 422,-147.5 422,-147.5 422,-215.5 422,-215.5 422,-221.5 416,-227.5 410,-227.5 410,-227.5 359,-227.5 359,-227.5 353,-227.5 347,-221.5 347,-215.5 347,-215.5 347,-147.5 347,-147.5 347,-141.5 353,-135.5 359,-135.5"/>
<text text-anchor="middle" x="384.5" y="-212.3" font-family="Times,serif" font-size="14.00">indx: 3</text>
<polyline fill="none" stroke="#9cad8c" points="347,-204.5 422,-204.5 "/>
<text text-anchor="middle" x="384.5" y="-189.3" font-family="Times,serif" font-size="14.00">data: 25</text>
<polyline fill="none" stroke="#9cad8c" points="347,-181.5 422,-181.5 "/>
<text text-anchor="middle" x="384.5" y="-166.3" font-family="Times,serif" font-size="14.00">next: 4</text>
<polyline fill="none" stroke="#9cad8c" points="347,-158.5 422,-158.5 "/>
<text text-anchor="middle" x="384.5" y="-143.3" font-family="Times,serif" font-size="14.00">prev: 2</text>
</g>
<!-- 2&#45;&gt;3 -->
<g id="edge3" class="edge">
<title>2&#45;&gt;3</title>
<path fill="none" stroke="#ece0da" d="M311.1,-175.08C319.28,-174.77 328.06,-174.68 336.59,-174.81"/>
<polygon fill="#ece0da" stroke="#ece0da" points="336.72,-178.31 346.81,-175.08 336.91,-171.32 336.72,-178.31"/>
</g>
<!-- 2&#45;&gt;3 -->
<g id="edge11" class="edge">
<title>2&#45;&gt;3</title>
<path fill="none" stroke="#9cad8c" d="M311.1,-187.92C319.28,-188.23 328.06,-188.32 336.59,-188.19"/>
<polygon fill="#9cad8c" stroke="#9cad8c" points="336.91,-191.68 346.81,-187.92 336.72,-184.69 336.91,-191.68"/>
</g>
<!-- 4 -->
<g id="node5" class="node">
<title>4</title>
<path fill="#f1c8cb" stroke="#9cad8c" d="M470,-135.5C470,-135.5 521,-135.5 521,-135.5 527,-135.5 533,-141.5 533,-147.5 533,-147.5 533,-215.5 533,-215.5 533,-221.5 527,-227.5 521,-227.5 521,-227.5 470,-227.5 470,-227.5 464,-227.5 458,-221.5 458,-215.5 458,-215.5 458,-147.5 458,-147.5 458,-141.5 464,-135.5 470,-135.5"/>
<text text-anchor="middle" x="495.5" y="-212.3" font-family="Times,serif" font-size="14.00">indx: 4</text>
<polyline fill="none" stroke="#9cad8c" points="458,-204.5 533,-204.5 "/>
<text text-anchor="middle" x="495.5" y="-189.3" font-family="Times,serif" font-size="14.00">data: 40</text>
<polyline fill="none" stroke="#9cad8c" points="458,-181.5 533,-181.5 "/>
<text text-anchor="middle" x="495.5" y="-166.3" font-family="Times,serif" font-size="14.00">next: 5</text>
<polyline fill="none" stroke="#9cad8c" points="458,-158.5 533,-158.5 "/>
<text text-anchor="middle" x="495.5" y="-143.3" font-family="Times,serif" font-size="14.00">prev: 3</text>
</g>
<!-- 3&#45;&gt;4 -->
<g id="edge4" class="edge">
<title>3&#45;&gt;4</title>
<path fill="none" stroke="#ece0da" d="M422.1,-175.08C430.28,-174.77 439.06,-174.68 447.59,-174.81"/>
<polygon fill="#ece0da" stroke="#ece0da" points="447.72,-178.31 457.81,-175.08 447.91,-171.32 447.72,-178.31"/>
</g>
<!-- 3&#45;&gt;4 -->
<g id="edge12" class="edge">
<title>3&#45;&gt;4</title>
<path fill="none" stroke="#9cad8c" d="M422.1,-187.92C430.28,-188.23 439.06,-188.32 447.59,-188.19"/>
<polygon fill="#9cad8c" stroke="#9cad8c" points="447.91,-191.68 457.81,-187.92 447.72,-184.69 447.91,-191.68"/>
</g>
<!-- 5 -->
<g id="node6" class="node">
<title>5</title>
<path fill="#f1c8cb" stroke="#9cad8c" d="M581,-135.5C581,-135.5 632,-135.5 632,-135.5 638,-135.5 644,-141.5 644,-147.5 644,-147.5 644,-215.5 644,-215.5 644,-221.5 638,-227.5 632,-227.5 632,-227.5 581,-227.5 581,-227.5 575,-227.5 569,-221.5 569,-215.5 569,-215.5 569,-147.5 569,-147.5 569,-141.5 575,-135.5 581,-135.5"/>
<text text-anchor="middle" x="606.5" y="-212.3" font-family="Times,serif" font-size="14.00">indx: 5</text>
<polyline fill="none" stroke="#9cad8c" points="569,-204.5 644,-204.5 "/>
<text text-anchor="middle" x="606.5" y="-189.3" font-family="Times,serif" font-size="14.00">data: 50</text>
<polyline fill="none" stroke="#9cad8c" points="569,-181.5 644,-181.5 "/>
<text text-anchor="middle" x="606.5" y="-166.3" font-family="Times,serif" font-size="14.00">next: 0</text>
<polyline fill="none" stroke="#9cad8c" points="569,-158.5 644,-158.5 "/>
<text text-anchor="middle" x="606.5" y="-143.3" font-family="Times,serif" font-size="14.00">prev: 4</text>
</g>
<!-- 4&#45;&gt;5 -->
<g id="edge5" class="edge">
<title>4&#45;&gt;5</title>
<path fill="none" stroke="#ece0da" d="M533.1,-175.08C541.28,-174.77 550.06,-174.68 558.59,-174.81"/>
<polygon fill="#ece0da" stroke="#ece0da" points="558.72,-178.31 568.81,-175.08 558.91,-171.32 558.72,-178.31"/>
</g>
<!-- 4&#45;&gt;5 -->
<g id="edge13" class="edge">
<title>4&#45;&gt;5</title>
<path fill="none" stroke="#9cad8c" d="M533.1,-187.92C541.28,-188.23 550.06,-188.32 558.59,-188.19"/>
<polygon fill="#9cad8c" stroke="#9cad8c" points="558.91,-191.68 568.81,-187.92 558.72,-184.69 558.91,-191.68"/>
</g>
<!-- 5&#45;&gt;0 -->
<g id="edge14" class="edge">
<title>5&#45;&gt;0</title>
<path fill="none" stroke="#9cad8c" d="M568.71,-146.4C558,-138.28 545.73,-130.78 533,-126.5 361.13,-68.68 298.09,-72.46 125,-126.5 115.63,-129.43 106.39,-133.89 97.71,-139.03"/>
<polygon fill="#9cad8c" stroke="#9cad8c" points="95.83,-136.07 89.23,-144.36 99.56,-142 95.83,-136.07"/>
</g>
<!-- 6 -->
<g id="node7" class="node">
<title>6</title>
<path fill="#f1c8cb" stroke="#9cad8c" d="M692,-135.5C692,-135.5 757,-135.5 757,-135.5 763,-135.5 769,-141.5 769,-147.5 769,-147.5 769,-215.5 769,-215.5 769,-221.5 763,-227.5 757,-227.5 757,-227.5 692,-227.5 692,-227.5 686,-227.5 680,-221.5 680,-215.5 680,-215.5 680,-147.5 680,-147.5 680,-141.5 686,-135.5 692,-135.5"/>
<text text-anchor="middle" x="724.5" y="-212.3" font-family="Times,serif" font-size="14.00">indx: 6</text>
<polyline fill="none" stroke="#9cad8c" points="680,-204.5 769,-204.5 "/>
<text text-anchor="middle" x="724.5" y="-189.3" font-family="Times,serif" font-size="14.00">data: &#45;666</text>
<polyline fill="none" stroke="#9cad8c" points="680,-181.5 769,-181.5 "/>
<text text-anchor="middle" x="724.5" y="-166.3" font-family="Times,serif" font-size="14.00">next: 7</text>
<polyline fill="none" stroke="#9cad8c" points="680,-158.5 769,-158.5 "/>
<text text-anchor="middle" x="724.5" y="-143.3" font-family="Times,serif" font-size="14.00">prev: 8</text>
</g>
<!-- 5&#45;&gt;6 -->
<g id="edge6" class="edge">
<title>5&#45;&gt;6</title>
<path fill="none" stroke="#ece0da" d="M644.2,-181.5C652.31,-181.5 661.07,-181.5 669.7,-181.5"/>
<polygon fill="#ece0da" stroke="#ece0da" points="669.73,-185 679.73,-181.5 669.73,-178 669.73,-185"/>
</g>
<!-- 7 -->
<g id="node8" class="node">
<title>7</title>
<path fill="#f1c8cb" stroke="#9cad8c" d="M817,-135.5C817,-135.5 882,-135.5 882,-135.5 888,-135.5 894,-141.5 894,-147.5 894,-147.5 894,-215.5 894,-215.5 894,-221.5 888,-227.5 882,-227.5 882,-227.5 817,-227.5 817,-227.5 811,-227.5 805,-221.5 805,-215.5 805,-215.5 805,-147.5 805,-147.5 805,-141.5 811,-135.5 817,-135.5"/>
<text text-anchor="middle" x="849.5" y="-212.3" font-family="Times,serif" font-size="14.00">indx: 7</text>
<polyline fill="none" stroke="#9cad8c" points="805,-204.5 894,-204.5 "/>
<text text-anchor="middle" x="849.5" y="-189.3" font-family="Times,serif" font-size="14.00">data: &#45;666</text>
<polyline fill="none" stroke="#9cad8c" points="805,-181.5 894,-181.5 "/>
<text text-anchor="middle" x="849.5" y="-166.3" font-family="Times,serif" font-size="14.00">next: 8</text>
<polyline fill="none" stroke="#9cad8c" points="805,-158.5 894,-158.5 "/>
<text text-anchor="middle" x="849.5" y="-143.3" font-family="Times,serif" font-size="14.00">prev: 6</text>
</g>
<!-- 6&#45;&gt;7 -->
<g id="edge7" class="edge">
<title>6&#45;&gt;7</title>
<path fill="none" stroke="#ece0da" d="M769.21,-175.01C777.46,-174.76 786.17,-174.69 794.69,-174.8"/>
<polygon fill="#ece0da" stroke="#ece0da" points="794.86,-178.3 804.93,-175.01 795,-171.3 794.86,-178.3"/>
</g>
<!-- 6&#45;&gt;7 -->
<g id="edge15" class="edge">
<title>6&#45;&gt;7</title>
<path fill="none" stroke="#9cad8c" d="M769.21,-187.99C777.46,-188.24 786.17,-188.31 794.69,-188.2"/>
<polygon fill="#9cad8c" stroke="#9cad8c" points="795,-191.7 804.93,-187.99 794.86,-184.7 795,-191.7"/>
</g>
<!-- 8 -->
<g id="node9" class="node">
<title>8</title>
<path fill="#f1c8cb" stroke="#9cad8c" d="M942,-135.5C942,-135.5 1007,-135.5 1007,-135.5 1013,-135.5 1019,-141.5 1019,-147.5 1019,-147.5 1019,-215.5 1019,-215.5 1019,-221.5 1013,-227.5 1007,-227.5 1007,-227.5 942,-227.5 942,-227.5 936,-227.5 930,-221.5 930,-215.5 930,-215.5 930,-147.5 930,-147.5 930,-141.5 936,-135.5 942,-135.5"/>
<text text-anchor="middle" x="974.5" y="-212.3" font-family="Times,serif" font-size="14.00">indx: 8</text>
<polyline fill="none" stroke="#9cad8c" points="930,-204.5 1019,-204.5 "/>
<text text-anchor="middle" x="974.5" y="-189.3" font-family="Times,serif" font-size="14.00">data: &#45;666</text>
<polyline fill="none" stroke="#9cad8c" points="930,-181.5 1019,-181.5 "/>
<text text-anchor="middle" x="974.5" y="-166.3" font-family="Times,serif" font-size="14.00">next: 6</text>
<polyline fill="none" stroke="#9cad8c" points="930,-158.5 1019,-158.5 "/>
<text text-anchor="middle" x="974.5" y="-143.3" font-family="Times,serif" font-size="14.00">prev: 7</text>
</g>
<!-- 7&#45;&gt;8 -->
<g id="edge8" class="edge">
<title>7&#45;&gt;8</title>
<path fill="none" stroke="#ece0da" d="M894.21,-175.01C902.46,-174.76 911.17,-174.69 919.69,-174.8"/>
<polygon fill="#ece0da" stroke="#ece0da" points="919.86,-178.3 929.93,-175.01 920,-171.3 919.86,-178.3"/>
</g>
<!-- 7&#45;&gt;8 -->
<g id="edge16" class="edge">
<title>7&#45;&gt;8</title>
<path fill="none" stroke="#9cad8c" d="M894.21,-187.99C902.46,-188.24 911.17,-188.31 919.69,-188.2"/>
<polygon fill="#9cad8c" stroke="#9cad8c" points="920,-191.7 929.93,-187.99 919.86,-184.7 920,-191.7"/>
</g>
<!-- 8&#45;&gt;6 -->
<g id="edge17" class="edge">
<title>8&#45;&gt;6</title>
<path fill="none" stroke="#9cad8c" d="M929.77,-144.36C918.76,-137.03 906.5,-130.4 894,-126.5 856.24,-114.71 842.76,-114.71 805,-126.5 795.63,-129.43 786.39,-133.89 777.71,-139.03"/>
<polygon fill="#9cad8c" stroke="#9cad8c" points="775.83,-136.07 769.23,-144.36 779.56,-142 775.83,-136.07"/>
</g>
<!-- head -->
<g id="node10" class="node">
<title>head</title>
<path fill="#f6b0bb" stroke="#337357" d="M22,-0.5C22,-0.5 67,-0.5 67,-0.5 73,-0.5 79,-6.5 79,-12.5 79,-12.5 79,-24.5 79,-24.5 79,-30.5 73,-36.5 67,-36.5 67,-36.5 22,-36.5 22,-36.5 16,-36.5 10,-30.5 10,-24.5 10,-24.5 10,-12.5 10,-12.5 10,-6.5 16,-0.5 22,-0.5"/>
<text text-anchor="middle" x="44.5" y="-14.8" font-family="Times,serif" font-size="14.00">head: 1</text>
</g>
<!-- head&#45;&gt;1 -->
<g id="edge20" class="edge">
<title>head&#45;&gt;1</title>
<path fill="none" stroke="#337357" d="M58.36,-36.57C73.79,-58.25 100.38,-95.62 122.7,-126.98"/>
<polygon fill="#337357" stroke="#337357" points="119.92,-129.11 128.57,-135.23 125.62,-125.05 119.92,-129.11"/>
</g>
<!-- tail -->
<g id="node11" class="node">
<title>tail</title>
<path fill="#f6b0bb" stroke="#337357" d="M145.5,-0.5C145.5,-0.5 179.5,-0.5 179.5,-0.5 185.5,-0.5 191.5,-6.5 191.5,-12.5 191.5,-12.5 191.5,-24.5 191.5,-24.5 191.5,-30.5 185.5,-36.5 179.5,-36.5 179.5,-36.5 145.5,-36.5 145.5,-36.5 139.5,-36.5 133.5,-30.5 133.5,-24.5 133.5,-24.5 133.5,-12.5 133.5,-12.5 133.5,-6.5 139.5,-0.5 145.5,-0.5"/>
<text text-anchor="middle" x="162.5" y="-14.8" font-family="Times,serif" font-size="14.00">tail: 5</text>
</g>
<!-- head&#45;&gt;tail -->
<g id="edge18" class="edge">
<title>head&#45;&gt;tail</title>
<path fill="none" stroke="#ece0da" d="M79.05,-18.5C92.84,-18.5 108.87,-18.5 123.12,-18.5"/>
<polygon fill="#ece0da" stroke="#ece0da" points="123.12,-22 133.12,-18.5 123.12,-15 123.12,-22"/>
</g>
<!-- tail&#45;&gt;5 -->
<g id="edge21" class="edge">
<title>tail&#45;&gt;5</title>
<path fill="none" stroke="#337357" d="M191.66,-30.48C204.91,-35.73 221.06,-41.58 236,-45.5 365.26,-79.43 417.16,-25.85 533,-92.5 547.73,-100.98 560.7,-113.69 571.44,-126.86"/>
<polygon fill="#337357" stroke="#337357" points="568.93,-129.35 577.83,-135.1 574.46,-125.05 568.93,-129.35"/>
</g>
<!-- free -->
<g id="node12" class="node">
<title>free</title>
<path fill="#f6b0bb" stroke="#337357" d="M254,-0.5C254,-0.5 293,-0.5 293,-0.5 299,-0.5 305,-6.5 305,-12.5 305,-12.5 305,-24.5 305,-24.5 305,-30.5 299,-36.5 293,-36.5 293,-36.5 254,-36.5 254,-36.5 248,-36.5 242,-30.5 242,-24.5 242,-24.5 242,-12.5 242,-12.5 242,-6.5 248,-0.5 254,-0.5"/>
<text text-anchor="middle" x="273.5" y="-14.8" font-family="Times,serif" font-size="14.00">free: 6</text>
</g>
<!-- tail&#45;&gt;free -->
<g id="edge19" class="edge">
<title>tail&#45;&gt;free</title>
<path fill="none" stroke="#ece0da" d="M191.57,-18.5C203.71,-18.5 218.17,-18.5 231.48,-18.5"/>
<polygon fill="#ece0da" stroke="#ece0da" points="231.84,-22 241.84,-18.5 231.84,-15 231.84,-22"/>
</g>
<!-- free&#45;&gt;6 -->
<g id="edge22" class="edge">
<title>free&#45;&gt;6</title>
<path fill="none" stroke="#337357" d="M305.3,-19.58C354.74,-22.14 454.25,-30.74 533,-59.5 587.13,-79.27 595.62,-95.2 644,-126.5 652.86,-132.23 662.17,-138.47 671.17,-144.62"/>
<polygon fill="#337357" stroke="#337357" points="669.45,-147.68 679.68,-150.46 673.42,-141.91 669.45,-147.68"/>
</g>
</g>
</svg>
