<?xml version="1.0" encoding="UTF-8" standalone="no"?>
<!DOCTYPE svg PUBLIC "-//W3C//DTD SVG 1.1//EN"
 "http://www.w3.org/Graphics/SVG/1.1/DTD/svg11.dtd">
<!-- Generated by graphviz version 2.43.0 (0)
 -->
<!-- Title: List Pages: 1 -->
<svg width="1027pt" height="370pt"
 viewBox="0.00 0.00 1027.00 370.22" xmlns="http://www.w3.org/2000/svg" xmlns:xlink="http://www.w3.org/1999/xlink">
<g id="graph0" class="graph" transform="scale(1 1) rotate(0) translate(4 366.22)">
<title>List</title>
<polygon fill="#ece0da" stroke="transparent" points="-4,4 -4,-366.22 1023,-366.22 1023,4 -4,4"/>
<!-- 0 -->
<g id="node1" class="node">
<title>0</title>
<path fill="#f1c8cb" stroke="#9cad8c" d="M12,-269.72C12,-269.72 77,-269.72 77,-269.72 83,-269.72 89,-275.72 89,-281.72 89,-281.72 89,-349.72 89,-349.72 89,-355.72 83,-361.72 77,-361.72 77,-361.72 12,-361.72 12,-361.72 6,-361.72 0,-355.72 0,-349.72 0,-349.72 0,-281.72 0,-281.72 0,-275.72 6,-269.72 12,-269.72"/>
<text text-anchor="middle" x="44.5" y="-346.52" font-family="Times,serif" font-size="14.00">indx: 0</text>
<polyline fill="none" stroke="#9cad8c" points="0,-338.72 89,-338.72 "/>
<text text-anchor="middle" x="44.5" y="-323.52" font-family="Times,serif" font-size="14.00">data: &#45;666</text>
<polyline fill="none" stroke="#9cad8c" points="0,-315.72 89,-315.72 "/>
<text text-anchor="middle" x="44.5" y="-300.52" font-family="Times,serif" font-size="14.00">next: 3</text>
<polyline fill="none" stroke="#9cad8c" points="0,-292.72 89,-292.72 "/>
<text text-anchor="middle" x="44.5" y="-277.52" font-family="Times,serif" font-size="14.00">prev: 5</text>
</g>
<!-- 1 -->
<g id="node2" class="node">
<title>1</title>
<path fill="#f1c8cb" stroke="#9cad8c" d="M137,-269.72C137,-269.72 202,-269.72 202,-269.72 208,-269.72 214,-275.72 214,-281.72 214,-281.72 214,-349.72 214,-349.72 214,-355.72 208,-361.72 202,-361.72 202,-361.72 137,-361.72 137,-361.72 131,-361.72 125,-355.72 125,-349.72 125,-349.72 125,-281.72 125,-281.72 125,-275.72 131,-269.72 137,-269.72"/>
<text text-anchor="middle" x="169.5" y="-346.52" font-family="Times,serif" font-size="14.00">indx: 1</text>
<polyline fill="none" stroke="#9cad8c" points="125,-338.72 214,-338.72 "/>
<text text-anchor="middle" x="169.5" y="-323.52" font-family="Times,serif" font-size="14.00">data: &#45;666</text>
<polyline fill="none" stroke="#9cad8c" points="125,-315.72 214,-315.72 "/>
<text text-anchor="middle" x="169.5" y="-300.52" font-family="Times,serif" font-size="14.00">next: 7</text>
<polyline fill="none" stroke="#9cad8c" points="125,-292.72 214,-292.72 "/>
<text text-anchor="middle" x="169.5" y="-277.52" font-family="Times,serif" font-size="14.00">prev: 8</text>
</g>
<!-- 0&#45;&gt;1 -->
<g id="edge1" class="edge">
<title>0&#45;&gt;1</title>
<path fill="none" stroke="#ece0da" d="M89.21,-315.72C97.46,-315.72 106.17,-315.72 114.69,-315.72"/>
<polygon fill="#ece0da" stroke="#ece0da" points="114.93,-319.22 124.93,-315.72 114.93,-312.22 114.93,-319.22"/>
</g>
<!-- 3 -->
<g id="node4" class="node">
<title>3</title>
<path fill="#f1c8cb" stroke="#9cad8c" d="M373,-269.72C373,-269.72 424,-269.72 424,-269.72 430,-269.72 436,-275.72 436,-281.72 436,-281.72 436,-349.72 436,-349.72 436,-355.72 430,-361.72 424,-361.72 424,-361.72 373,-361.72 373,-361.72 367,-361.72 361,-355.72 361,-349.72 361,-349.72 361,-281.72 361,-281.72 361,-275.72 367,-269.72 373,-269.72"/>
<text text-anchor="middle" x="398.5" y="-346.52" font-family="Times,serif" font-size="14.00">indx: 3</text>
<polyline fill="none" stroke="#9cad8c" points="361,-338.72 436,-338.72 "/>
<text text-anchor="middle" x="398.5" y="-323.52" font-family="Times,serif" font-size="14.00">data: 10</text>
<polyline fill="none" stroke="#9cad8c" points="361,-315.72 436,-315.72 "/>
<text text-anchor="middle" x="398.5" y="-300.52" font-family="Times,serif" font-size="14.00">next: 2</text>
<polyline fill="none" stroke="#9cad8c" points="361,-292.72 436,-292.72 "/>
<text text-anchor="middle" x="398.5" y="-277.52" font-family="Times,serif" font-size="14.00">prev: 0</text>
</g>
<!-- 0&#45;&gt;3 -->
<g id="edge9" class="edge">
<title>0&#45;&gt;3</title>
<path fill="none" stroke="#9cad8c" d="M89.32,-283.72C100.72,-275.86 113.14,-267.71 125,-260.72 163.02,-238.33 185.74,-250.62 214,-216.72 251.3,-171.99 203.5,-125.8 250,-90.72 276.61,-70.65 298.06,-71.1 325,-90.72 377.56,-129.01 392.83,-206.09 396.84,-259.28"/>
<polygon fill="#9cad8c" stroke="#9cad8c" points="393.36,-259.82 397.5,-269.58 400.35,-259.37 393.36,-259.82"/>
</g>
<!-- 2 -->
<g id="node3" class="node">
<title>2</title>
<path fill="#f1c8cb" stroke="#9cad8c" d="M262,-269.72C262,-269.72 313,-269.72 313,-269.72 319,-269.72 325,-275.72 325,-281.72 325,-281.72 325,-349.72 325,-349.72 325,-355.72 319,-361.72 313,-361.72 313,-361.72 262,-361.72 262,-361.72 256,-361.72 250,-355.72 250,-349.72 250,-349.72 250,-281.72 250,-281.72 250,-275.72 256,-269.72 262,-269.72"/>
<text text-anchor="middle" x="287.5" y="-346.52" font-family="Times,serif" font-size="14.00">indx: 2</text>
<polyline fill="none" stroke="#9cad8c" points="250,-338.72 325,-338.72 "/>
<text text-anchor="middle" x="287.5" y="-323.52" font-family="Times,serif" font-size="14.00">data: 20</text>
<polyline fill="none" stroke="#9cad8c" points="250,-315.72 325,-315.72 "/>
<text text-anchor="middle" x="287.5" y="-300.52" font-family="Times,serif" font-size="14.00">next: 6</text>
<polyline fill="none" stroke="#9cad8c" points="250,-292.72 325,-292.72 "/>
<text text-anchor="middle" x="287.5" y="-277.52" font-family="Times,serif" font-size="14.00">prev: 3</text>
</g>
<!-- 1&#45;&gt;2 -->
<g id="edge2" class="edge">
<title>1&#45;&gt;2</title>
<path fill="none" stroke="#ece0da" d="M214.02,-315.72C222.43,-315.72 231.28,-315.72 239.78,-315.72"/>
<polygon fill="#ece0da" stroke="#ece0da" points="239.94,-319.22 249.94,-315.72 239.94,-312.22 239.94,-319.22"/>
</g>
<!-- 7 -->
<g id="node8" class="node">
<title>7</title>
<path fill="#f1c8cb" stroke="#9cad8c" d="M817,-269.72C817,-269.72 882,-269.72 882,-269.72 888,-269.72 894,-275.72 894,-281.72 894,-281.72 894,-349.72 894,-349.72 894,-355.72 888,-361.72 882,-361.72 882,-361.72 817,-361.72 817,-361.72 811,-361.72 805,-355.72 805,-349.72 805,-349.72 805,-281.72 805,-281.72 805,-275.72 811,-269.72 817,-269.72"/>
<text text-anchor="middle" x="849.5" y="-346.52" font-family="Times,serif" font-size="14.00">indx: 7</text>
<polyline fill="none" stroke="#9cad8c" points="805,-338.72 894,-338.72 "/>
<text text-anchor="middle" x="849.5" y="-323.52" font-family="Times,serif" font-size="14.00">data: &#45;666</text>
<polyline fill="none" stroke="#9cad8c" points="805,-315.72 894,-315.72 "/>
<text text-anchor="middle" x="849.5" y="-300.52" font-family="Times,serif" font-size="14.00">next: 8</text>
<polyline fill="none" stroke="#9cad8c" points="805,-292.72 894,-292.72 "/>
<text text-anchor="middle" x="849.5" y="-277.52" font-family="Times,serif" font-size="14.00">prev: 1</text>
</g>
<!-- 1&#45;&gt;7 -->
<g id="edge15" class="edge">
<title>1&#45;&gt;7</title>
<path fill="none" stroke="#9cad8c" d="M214.29,-281.5C225.49,-273.87 237.82,-266.38 250,-260.72 415.27,-184.01 479.11,-186.14 658,-220.72 709.49,-230.68 722.38,-236.72 769,-260.72 778.16,-265.44 787.5,-271.06 796.4,-276.87"/>
<polygon fill="#9cad8c" stroke="#9cad8c" points="794.53,-279.83 804.78,-282.48 798.42,-274.01 794.53,-279.83"/>
</g>
<!-- 2&#45;&gt;3 -->
<g id="edge3" class="edge">
<title>2&#45;&gt;3</title>
<path fill="none" stroke="#ece0da" d="M325.1,-309.31C333.28,-308.99 342.06,-308.9 350.59,-309.03"/>
<polygon fill="#ece0da" stroke="#ece0da" points="350.72,-312.54 360.81,-309.31 350.91,-305.54 350.72,-312.54"/>
</g>
<!-- 6 -->
<g id="node7" class="node">
<title>6</title>
<path fill="#f1c8cb" stroke="#9cad8c" d="M706,-269.72C706,-269.72 757,-269.72 757,-269.72 763,-269.72 769,-275.72 769,-281.72 769,-281.72 769,-349.72 769,-349.72 769,-355.72 763,-361.72 757,-361.72 757,-361.72 706,-361.72 706,-361.72 700,-361.72 694,-355.72 694,-349.72 694,-349.72 694,-281.72 694,-281.72 694,-275.72 700,-269.72 706,-269.72"/>
<text text-anchor="middle" x="731.5" y="-346.52" font-family="Times,serif" font-size="14.00">indx: 6</text>
<polyline fill="none" stroke="#9cad8c" points="694,-338.72 769,-338.72 "/>
<text text-anchor="middle" x="731.5" y="-323.52" font-family="Times,serif" font-size="14.00">data: 25</text>
<polyline fill="none" stroke="#9cad8c" points="694,-315.72 769,-315.72 "/>
<text text-anchor="middle" x="731.5" y="-300.52" font-family="Times,serif" font-size="14.00">next: 4</text>
<polyline fill="none" stroke="#9cad8c" points="694,-292.72 769,-292.72 "/>
<text text-anchor="middle" x="731.5" y="-277.52" font-family="Times,serif" font-size="14.00">prev: 2</text>
</g>
<!-- 2&#45;&gt;6 -->
<g id="edge11" class="edge">
<title>2&#45;&gt;6</title>
<path fill="none" stroke="#9cad8c" d="M325.08,-281.36C335.88,-273.14 348.24,-265.4 361,-260.72 485.03,-215.24 534.98,-200.58 658,-248.72 668.02,-252.65 677.49,-258.67 686.07,-265.54"/>
<polygon fill="#9cad8c" stroke="#9cad8c" points="683.81,-268.21 693.69,-272.04 688.35,-262.89 683.81,-268.21"/>
</g>
<!-- 3&#45;&gt;2 -->
<g id="edge10" class="edge">
<title>3&#45;&gt;2</title>
<path fill="none" stroke="#9cad8c" d="M360.81,-322.14C352.63,-322.46 343.85,-322.55 335.32,-322.41"/>
<polygon fill="#9cad8c" stroke="#9cad8c" points="335.19,-318.91 325.1,-322.14 335,-325.91 335.19,-318.91"/>
</g>
<!-- 4 -->
<g id="node5" class="node">
<title>4</title>
<path fill="#f1c8cb" stroke="#9cad8c" d="M484,-269.72C484,-269.72 535,-269.72 535,-269.72 541,-269.72 547,-275.72 547,-281.72 547,-281.72 547,-349.72 547,-349.72 547,-355.72 541,-361.72 535,-361.72 535,-361.72 484,-361.72 484,-361.72 478,-361.72 472,-355.72 472,-349.72 472,-349.72 472,-281.72 472,-281.72 472,-275.72 478,-269.72 484,-269.72"/>
<text text-anchor="middle" x="509.5" y="-346.52" font-family="Times,serif" font-size="14.00">indx: 4</text>
<polyline fill="none" stroke="#9cad8c" points="472,-338.72 547,-338.72 "/>
<text text-anchor="middle" x="509.5" y="-323.52" font-family="Times,serif" font-size="14.00">data: 40</text>
<polyline fill="none" stroke="#9cad8c" points="472,-315.72 547,-315.72 "/>
<text text-anchor="middle" x="509.5" y="-300.52" font-family="Times,serif" font-size="14.00">next: 5</text>
<polyline fill="none" stroke="#9cad8c" points="472,-292.72 547,-292.72 "/>
<text text-anchor="middle" x="509.5" y="-277.52" font-family="Times,serif" font-size="14.00">prev: 6</text>
</g>
<!-- 3&#45;&gt;4 -->
<g id="edge4" class="edge">
<title>3&#45;&gt;4</title>
<path fill="none" stroke="#ece0da" d="M436.1,-315.72C444.28,-315.72 453.06,-315.72 461.59,-315.72"/>
<polygon fill="#ece0da" stroke="#ece0da" points="461.81,-319.22 471.81,-315.72 461.81,-312.22 461.81,-319.22"/>
</g>
<!-- 5 -->
<g id="node6" class="node">
<title>5</title>
<path fill="#f1c8cb" stroke="#9cad8c" d="M595,-269.72C595,-269.72 646,-269.72 646,-269.72 652,-269.72 658,-275.72 658,-281.72 658,-281.72 658,-349.72 658,-349.72 658,-355.72 652,-361.72 646,-361.72 646,-361.72 595,-361.72 595,-361.72 589,-361.72 583,-355.72 583,-349.72 583,-349.72 583,-281.72 583,-281.72 583,-275.72 589,-269.72 595,-269.72"/>
<text text-anchor="middle" x="620.5" y="-346.52" font-family="Times,serif" font-size="14.00">indx: 5</text>
<polyline fill="none" stroke="#9cad8c" points="583,-338.72 658,-338.72 "/>
<text text-anchor="middle" x="620.5" y="-323.52" font-family="Times,serif" font-size="14.00">data: 50</text>
<polyline fill="none" stroke="#9cad8c" points="583,-315.72 658,-315.72 "/>
<text text-anchor="middle" x="620.5" y="-300.52" font-family="Times,serif" font-size="14.00">next: 0</text>
<polyline fill="none" stroke="#9cad8c" points="583,-292.72 658,-292.72 "/>
<text text-anchor="middle" x="620.5" y="-277.52" font-family="Times,serif" font-size="14.00">prev: 4</text>
</g>
<!-- 4&#45;&gt;5 -->
<g id="edge5" class="edge">
<title>4&#45;&gt;5</title>
<path fill="none" stroke="#ece0da" d="M547.1,-309.31C555.28,-308.99 564.06,-308.9 572.59,-309.03"/>
<polygon fill="#ece0da" stroke="#ece0da" points="572.72,-312.54 582.81,-309.31 572.91,-305.54 572.72,-312.54"/>
</g>
<!-- 4&#45;&gt;5 -->
<g id="edge13" class="edge">
<title>4&#45;&gt;5</title>
<path fill="none" stroke="#9cad8c" d="M547.1,-322.14C555.28,-322.46 564.06,-322.55 572.59,-322.42"/>
<polygon fill="#9cad8c" stroke="#9cad8c" points="572.91,-325.91 582.81,-322.14 572.72,-318.91 572.91,-325.91"/>
</g>
<!-- 5&#45;&gt;0 -->
<g id="edge14" class="edge">
<title>5&#45;&gt;0</title>
<path fill="none" stroke="#9cad8c" d="M582.97,-270.24C532.35,-211.25 434.62,-111.24 325,-71.72 293.64,-60.42 278.26,-54.05 250,-71.72 218.99,-91.12 236.86,-117.17 214,-145.72 182.38,-185.22 160.84,-181 125,-216.72 111.3,-230.38 97.65,-246.31 85.63,-261.34"/>
<polygon fill="#9cad8c" stroke="#9cad8c" points="82.57,-259.56 79.13,-269.58 88.07,-263.9 82.57,-259.56"/>
</g>
<!-- 5&#45;&gt;6 -->
<g id="edge6" class="edge">
<title>5&#45;&gt;6</title>
<path fill="none" stroke="#ece0da" d="M658.1,-315.72C666.28,-315.72 675.06,-315.72 683.59,-315.72"/>
<polygon fill="#ece0da" stroke="#ece0da" points="683.81,-319.22 693.81,-315.72 683.81,-312.22 683.81,-319.22"/>
</g>
<!-- 6&#45;&gt;4 -->
<g id="edge12" class="edge">
<title>6&#45;&gt;4</title>
<path fill="none" stroke="#9cad8c" d="M693.71,-280.62C683,-272.51 670.73,-265.01 658,-260.72 626.41,-250.1 614.59,-250.1 583,-260.72 573.45,-263.94 564.17,-268.96 555.6,-274.69"/>
<polygon fill="#9cad8c" stroke="#9cad8c" points="553.4,-271.96 547.29,-280.62 557.47,-277.66 553.4,-271.96"/>
</g>
<!-- 6&#45;&gt;7 -->
<g id="edge7" class="edge">
<title>6&#45;&gt;7</title>
<path fill="none" stroke="#ece0da" d="M769.2,-315.72C777.31,-315.72 786.07,-315.72 794.7,-315.72"/>
<polygon fill="#ece0da" stroke="#ece0da" points="794.73,-319.22 804.73,-315.72 794.73,-312.22 794.73,-319.22"/>
</g>
<!-- 8 -->
<g id="node9" class="node">
<title>8</title>
<path fill="#f1c8cb" stroke="#9cad8c" d="M942,-269.72C942,-269.72 1007,-269.72 1007,-269.72 1013,-269.72 1019,-275.72 1019,-281.72 1019,-281.72 1019,-349.72 1019,-349.72 1019,-355.72 1013,-361.72 1007,-361.72 1007,-361.72 942,-361.72 942,-361.72 936,-361.72 930,-355.72 930,-349.72 930,-349.72 930,-281.72 930,-281.72 930,-275.72 936,-269.72 942,-269.72"/>
<text text-anchor="middle" x="974.5" y="-346.52" font-family="Times,serif" font-size="14.00">indx: 8</text>
<polyline fill="none" stroke="#9cad8c" points="930,-338.72 1019,-338.72 "/>
<text text-anchor="middle" x="974.5" y="-323.52" font-family="Times,serif" font-size="14.00">data: &#45;666</text>
<polyline fill="none" stroke="#9cad8c" points="930,-315.72 1019,-315.72 "/>
<text text-anchor="middle" x="974.5" y="-300.52" font-family="Times,serif" font-size="14.00">next: 1</text>
<polyline fill="none" stroke="#9cad8c" points="930,-292.72 1019,-292.72 "/>
<text text-anchor="middle" x="974.5" y="-277.52" font-family="Times,serif" font-size="14.00">prev: 7</text>
</g>
<!-- 7&#45;&gt;8 -->
<g id="edge8" class="edge">
<title>7&#45;&gt;8</title>
<path fill="none" stroke="#ece0da" d="M894.21,-309.23C902.46,-308.99 911.17,-308.92 919.69,-309.02"/>
<polygon fill="#ece0da" stroke="#ece0da" points="919.86,-312.53 929.93,-309.24 920,-305.53 919.86,-312.53"/>
</g>
<!-- 7&#45;&gt;8 -->
<g id="edge16" class="edge">
<title>7&#45;&gt;8</title>
<path fill="none" stroke="#9cad8c" d="M894.21,-322.22C902.46,-322.46 911.17,-322.53 919.69,-322.43"/>
<polygon fill="#9cad8c" stroke="#9cad8c" points="920,-325.92 929.93,-322.21 919.86,-318.92 920,-325.92"/>
</g>
<!-- 8&#45;&gt;1 -->
<g id="edge17" class="edge">
<title>8&#45;&gt;1</title>
<path fill="none" stroke="#9cad8c" d="M929.64,-281.64C918.44,-274.01 906.13,-266.48 894,-260.72 841.76,-235.95 825.24,-238.11 769,-224.72 592.15,-182.63 541.09,-170.94 361,-195.72 310.49,-202.68 293.36,-197.89 250,-224.72 234.35,-234.41 220.08,-248.15 208.1,-262.02"/>
<polygon fill="#9cad8c" stroke="#9cad8c" points="205.39,-259.8 201.68,-269.72 210.77,-264.28 205.39,-259.8"/>
</g>
<!-- head -->
<g id="node10" class="node">
<title>head</title>
<path fill="#f6b0bb" stroke="#337357" d="M22,-99.72C22,-99.72 67,-99.72 67,-99.72 73,-99.72 79,-105.72 79,-111.72 79,-111.72 79,-123.72 79,-123.72 79,-129.72 73,-135.72 67,-135.72 67,-135.72 22,-135.72 22,-135.72 16,-135.72 10,-129.72 10,-123.72 10,-123.72 10,-111.72 10,-111.72 10,-105.72 16,-99.72 22,-99.72"/>
<text text-anchor="middle" x="44.5" y="-114.02" font-family="Times,serif" font-size="14.00">head: 3</text>
</g>
<!-- head&#45;&gt;3 -->
<g id="edge20" class="edge">
<title>head&#45;&gt;3</title>
<path fill="none" stroke="#337357" d="M78.84,-135.81C114.86,-152.66 172.64,-171.6 214,-145.72 245.01,-126.33 218.99,-91.12 250,-71.72 278.26,-54.05 298.28,-51.79 325,-71.72 355.13,-94.21 377.24,-194.59 388.67,-259.39"/>
<polygon fill="#337357" stroke="#337357" points="385.26,-260.21 390.42,-269.47 392.16,-259.02 385.26,-260.21"/>
</g>
<!-- tail -->
<g id="node11" class="node">
<title>tail</title>
<path fill="#f6b0bb" stroke="#337357" d="M152.5,-99.72C152.5,-99.72 186.5,-99.72 186.5,-99.72 192.5,-99.72 198.5,-105.72 198.5,-111.72 198.5,-111.72 198.5,-123.72 198.5,-123.72 198.5,-129.72 192.5,-135.72 186.5,-135.72 186.5,-135.72 152.5,-135.72 152.5,-135.72 146.5,-135.72 140.5,-129.72 140.5,-123.72 140.5,-123.72 140.5,-111.72 140.5,-111.72 140.5,-105.72 146.5,-99.72 152.5,-99.72"/>
<text text-anchor="middle" x="169.5" y="-114.02" font-family="Times,serif" font-size="14.00">tail: 5</text>
</g>
<!-- head&#45;&gt;tail -->
<g id="edge18" class="edge">
<title>head&#45;&gt;tail</title>
<path fill="none" stroke="#ece0da" d="M79.11,-117.72C94.86,-117.72 113.72,-117.72 130.04,-117.72"/>
<polygon fill="#ece0da" stroke="#ece0da" points="130.34,-121.22 140.34,-117.72 130.34,-114.22 130.34,-121.22"/>
</g>
<!-- tail&#45;&gt;5 -->
<g id="edge21" class="edge">
<title>tail&#45;&gt;5</title>
<path fill="none" stroke="#337357" d="M189.7,-99.5C232.81,-60.87 340.97,23.33 436,-6.72 493.49,-24.9 511.42,-36.05 547,-84.72 585.17,-136.95 603.65,-209.86 612.32,-259.72"/>
<polygon fill="#337357" stroke="#337357" points="608.88,-260.39 613.97,-269.68 615.79,-259.24 608.88,-260.39"/>
</g>
<!-- free -->
<g id="node12" class="node">
<title>free</title>
<path fill="#f6b0bb" stroke="#337357" d="M268,-99.72C268,-99.72 307,-99.72 307,-99.72 313,-99.72 319,-105.72 319,-111.72 319,-111.72 319,-123.72 319,-123.72 319,-129.72 313,-135.72 307,-135.72 307,-135.72 268,-135.72 268,-135.72 262,-135.72 256,-129.72 256,-123.72 256,-123.72 256,-111.72 256,-111.72 256,-105.72 262,-99.72 268,-99.72"/>
<text text-anchor="middle" x="287.5" y="-114.02" font-family="Times,serif" font-size="14.00">free: 1</text>
</g>
<!-- tail&#45;&gt;free -->
<g id="edge19" class="edge">
<title>tail&#45;&gt;free</title>
<path fill="none" stroke="#ece0da" d="M198.58,-117.72C212.64,-117.72 229.92,-117.72 245.43,-117.72"/>
<polygon fill="#ece0da" stroke="#ece0da" points="245.83,-121.22 255.83,-117.72 245.83,-114.22 245.83,-121.22"/>
</g>
<!-- free&#45;&gt;1 -->
<g id="edge22" class="edge">
<title>free&#45;&gt;1</title>
<path fill="none" stroke="#337357" d="M268.67,-135.93C262.19,-143.22 255.19,-151.96 250,-160.72 227.2,-199.21 235.16,-215.31 214,-254.72 212.93,-256.73 211.79,-258.74 210.62,-260.75"/>
<polygon fill="#337357" stroke="#337357" points="207.47,-259.19 205.24,-269.54 213.44,-262.84 207.47,-259.19"/>
</g>
</g>
</svg>
