<?xml version="1.0" encoding="UTF-8" standalone="no"?>
<!DOCTYPE svg PUBLIC "-//W3C//DTD SVG 1.1//EN"
 "http://www.w3.org/Graphics/SVG/1.1/DTD/svg11.dtd">
<!-- Generated by graphviz version 2.43.0 (0)
 -->
<!-- Title: List Pages: 1 -->
<svg width="1013pt" height="307pt"
 viewBox="0.00 0.00 1013.00 307.00" xmlns="http://www.w3.org/2000/svg" xmlns:xlink="http://www.w3.org/1999/xlink">
<g id="graph0" class="graph" transform="scale(1 1) rotate(0) translate(4 303)">
<title>List</title>
<polygon fill="#ece0da" stroke="transparent" points="-4,4 -4,-303 1009,-303 1009,4 -4,4"/>
<!-- 0 -->
<g id="node1" class="node">
<title>0</title>
<path fill="#f1c8cb" stroke="#9cad8c" d="M12,-206.5C12,-206.5 77,-206.5 77,-206.5 83,-206.5 89,-212.5 89,-218.5 89,-218.5 89,-286.5 89,-286.5 89,-292.5 83,-298.5 77,-298.5 77,-298.5 12,-298.5 12,-298.5 6,-298.5 0,-292.5 0,-286.5 0,-286.5 0,-218.5 0,-218.5 0,-212.5 6,-206.5 12,-206.5"/>
<text text-anchor="middle" x="44.5" y="-283.3" font-family="Times,serif" font-size="14.00">indx: 0</text>
<polyline fill="none" stroke="#9cad8c" points="0,-275.5 89,-275.5 "/>
<text text-anchor="middle" x="44.5" y="-260.3" font-family="Times,serif" font-size="14.00">data: &#45;666</text>
<polyline fill="none" stroke="#9cad8c" points="0,-252.5 89,-252.5 "/>
<text text-anchor="middle" x="44.5" y="-237.3" font-family="Times,serif" font-size="14.00">next: 1</text>
<polyline fill="none" stroke="#9cad8c" points="0,-229.5 89,-229.5 "/>
<text text-anchor="middle" x="44.5" y="-214.3" font-family="Times,serif" font-size="14.00">prev: 5</text>
</g>
<!-- 1 -->
<g id="node2" class="node">
<title>1</title>
<path fill="#f1c8cb" stroke="#9cad8c" d="M137,-206.5C137,-206.5 188,-206.5 188,-206.5 194,-206.5 200,-212.5 200,-218.5 200,-218.5 200,-286.5 200,-286.5 200,-292.5 194,-298.5 188,-298.5 188,-298.5 137,-298.5 137,-298.5 131,-298.5 125,-292.5 125,-286.5 125,-286.5 125,-218.5 125,-218.5 125,-212.5 131,-206.5 137,-206.5"/>
<text text-anchor="middle" x="162.5" y="-283.3" font-family="Times,serif" font-size="14.00">indx: 1</text>
<polyline fill="none" stroke="#9cad8c" points="125,-275.5 200,-275.5 "/>
<text text-anchor="middle" x="162.5" y="-260.3" font-family="Times,serif" font-size="14.00">data: 10</text>
<polyline fill="none" stroke="#9cad8c" points="125,-252.5 200,-252.5 "/>
<text text-anchor="middle" x="162.5" y="-237.3" font-family="Times,serif" font-size="14.00">next: 2</text>
<polyline fill="none" stroke="#9cad8c" points="125,-229.5 200,-229.5 "/>
<text text-anchor="middle" x="162.5" y="-214.3" font-family="Times,serif" font-size="14.00">prev: 0</text>
</g>
<!-- 0&#45;&gt;1 -->
<g id="edge1" class="edge">
<title>0&#45;&gt;1</title>
<path fill="none" stroke="#ece0da" d="M89.02,-245.94C97.43,-245.71 106.28,-245.69 114.78,-245.86"/>
<polygon fill="#ece0da" stroke="#ece0da" points="114.84,-249.37 124.94,-246.18 115.05,-242.37 114.84,-249.37"/>
</g>
<!-- 0&#45;&gt;1 -->
<g id="edge9" class="edge">
<title>0&#45;&gt;1</title>
<path fill="none" stroke="#9cad8c" d="M89.02,-259.06C97.43,-259.29 106.28,-259.31 114.78,-259.14"/>
<polygon fill="#9cad8c" stroke="#9cad8c" points="115.05,-262.63 124.94,-258.82 114.84,-255.63 115.05,-262.63"/>
</g>
<!-- 2 -->
<g id="node3" class="node">
<title>2</title>
<path fill="#f1c8cb" stroke="#9cad8c" d="M248,-206.5C248,-206.5 299,-206.5 299,-206.5 305,-206.5 311,-212.5 311,-218.5 311,-218.5 311,-286.5 311,-286.5 311,-292.5 305,-298.5 299,-298.5 299,-298.5 248,-298.5 248,-298.5 242,-298.5 236,-292.5 236,-286.5 236,-286.5 236,-218.5 236,-218.5 236,-212.5 242,-206.5 248,-206.5"/>
<text text-anchor="middle" x="273.5" y="-283.3" font-family="Times,serif" font-size="14.00">indx: 2</text>
<polyline fill="none" stroke="#9cad8c" points="236,-275.5 311,-275.5 "/>
<text text-anchor="middle" x="273.5" y="-260.3" font-family="Times,serif" font-size="14.00">data: 20</text>
<polyline fill="none" stroke="#9cad8c" points="236,-252.5 311,-252.5 "/>
<text text-anchor="middle" x="273.5" y="-237.3" font-family="Times,serif" font-size="14.00">next: 6</text>
<polyline fill="none" stroke="#9cad8c" points="236,-229.5 311,-229.5 "/>
<text text-anchor="middle" x="273.5" y="-214.3" font-family="Times,serif" font-size="14.00">prev: 1</text>
</g>
<!-- 1&#45;&gt;2 -->
<g id="edge2" class="edge">
<title>1&#45;&gt;2</title>
<path fill="none" stroke="#ece0da" d="M200.1,-246.08C208.28,-245.77 217.06,-245.68 225.59,-245.81"/>
<polygon fill="#ece0da" stroke="#ece0da" points="225.72,-249.31 235.81,-246.08 225.91,-242.32 225.72,-249.31"/>
</g>
<!-- 1&#45;&gt;2 -->
<g id="edge10" class="edge">
<title>1&#45;&gt;2</title>
<path fill="none" stroke="#9cad8c" d="M200.1,-258.92C208.28,-259.23 217.06,-259.32 225.59,-259.19"/>
<polygon fill="#9cad8c" stroke="#9cad8c" points="225.91,-262.68 235.81,-258.92 225.72,-255.69 225.91,-262.68"/>
</g>
<!-- 3 -->
<g id="node4" class="node">
<title>3</title>
<path fill="#f1c8cb" stroke="#9cad8c" d="M359,-206.5C359,-206.5 410,-206.5 410,-206.5 416,-206.5 422,-212.5 422,-218.5 422,-218.5 422,-286.5 422,-286.5 422,-292.5 416,-298.5 410,-298.5 410,-298.5 359,-298.5 359,-298.5 353,-298.5 347,-292.5 347,-286.5 347,-286.5 347,-218.5 347,-218.5 347,-212.5 353,-206.5 359,-206.5"/>
<text text-anchor="middle" x="384.5" y="-283.3" font-family="Times,serif" font-size="14.00">indx: 3</text>
<polyline fill="none" stroke="#9cad8c" points="347,-275.5 422,-275.5 "/>
<text text-anchor="middle" x="384.5" y="-260.3" font-family="Times,serif" font-size="14.00">data: 30</text>
<polyline fill="none" stroke="#9cad8c" points="347,-252.5 422,-252.5 "/>
<text text-anchor="middle" x="384.5" y="-237.3" font-family="Times,serif" font-size="14.00">next: 4</text>
<polyline fill="none" stroke="#9cad8c" points="347,-229.5 422,-229.5 "/>
<text text-anchor="middle" x="384.5" y="-214.3" font-family="Times,serif" font-size="14.00">prev: 6</text>
</g>
<!-- 2&#45;&gt;3 -->
<g id="edge3" class="edge">
<title>2&#45;&gt;3</title>
<path fill="none" stroke="#ece0da" d="M311.1,-252.5C319.28,-252.5 328.06,-252.5 336.59,-252.5"/>
<polygon fill="#ece0da" stroke="#ece0da" points="336.81,-256 346.81,-252.5 336.81,-249 336.81,-256"/>
</g>
<!-- 6 -->
<g id="node7" class="node">
<title>6</title>
<path fill="#f1c8cb" stroke="#9cad8c" d="M692,-206.5C692,-206.5 743,-206.5 743,-206.5 749,-206.5 755,-212.5 755,-218.5 755,-218.5 755,-286.5 755,-286.5 755,-292.5 749,-298.5 743,-298.5 743,-298.5 692,-298.5 692,-298.5 686,-298.5 680,-292.5 680,-286.5 680,-286.5 680,-218.5 680,-218.5 680,-212.5 686,-206.5 692,-206.5"/>
<text text-anchor="middle" x="717.5" y="-283.3" font-family="Times,serif" font-size="14.00">indx: 6</text>
<polyline fill="none" stroke="#9cad8c" points="680,-275.5 755,-275.5 "/>
<text text-anchor="middle" x="717.5" y="-260.3" font-family="Times,serif" font-size="14.00">data: 25</text>
<polyline fill="none" stroke="#9cad8c" points="680,-252.5 755,-252.5 "/>
<text text-anchor="middle" x="717.5" y="-237.3" font-family="Times,serif" font-size="14.00">next: 3</text>
<polyline fill="none" stroke="#9cad8c" points="680,-229.5 755,-229.5 "/>
<text text-anchor="middle" x="717.5" y="-214.3" font-family="Times,serif" font-size="14.00">prev: 2</text>
</g>
<!-- 2&#45;&gt;6 -->
<g id="edge11" class="edge">
<title>2&#45;&gt;6</title>
<path fill="none" stroke="#9cad8c" d="M311.21,-219.68C322.11,-211.36 334.49,-203.19 347,-197.5 392.86,-176.65 407.88,-179.64 458,-174.5 540.24,-166.07 568.22,-141.48 644,-174.5 656.68,-180.03 668.15,-188.99 678.02,-198.9"/>
<polygon fill="#9cad8c" stroke="#9cad8c" points="675.53,-201.36 684.92,-206.26 680.63,-196.57 675.53,-201.36"/>
</g>
<!-- 4 -->
<g id="node5" class="node">
<title>4</title>
<path fill="#f1c8cb" stroke="#9cad8c" d="M470,-206.5C470,-206.5 521,-206.5 521,-206.5 527,-206.5 533,-212.5 533,-218.5 533,-218.5 533,-286.5 533,-286.5 533,-292.5 527,-298.5 521,-298.5 521,-298.5 470,-298.5 470,-298.5 464,-298.5 458,-292.5 458,-286.5 458,-286.5 458,-218.5 458,-218.5 458,-212.5 464,-206.5 470,-206.5"/>
<text text-anchor="middle" x="495.5" y="-283.3" font-family="Times,serif" font-size="14.00">indx: 4</text>
<polyline fill="none" stroke="#9cad8c" points="458,-275.5 533,-275.5 "/>
<text text-anchor="middle" x="495.5" y="-260.3" font-family="Times,serif" font-size="14.00">data: 40</text>
<polyline fill="none" stroke="#9cad8c" points="458,-252.5 533,-252.5 "/>
<text text-anchor="middle" x="495.5" y="-237.3" font-family="Times,serif" font-size="14.00">next: 5</text>
<polyline fill="none" stroke="#9cad8c" points="458,-229.5 533,-229.5 "/>
<text text-anchor="middle" x="495.5" y="-214.3" font-family="Times,serif" font-size="14.00">prev: 3</text>
</g>
<!-- 3&#45;&gt;4 -->
<g id="edge4" class="edge">
<title>3&#45;&gt;4</title>
<path fill="none" stroke="#ece0da" d="M422.1,-246.08C430.28,-245.77 439.06,-245.68 447.59,-245.81"/>
<polygon fill="#ece0da" stroke="#ece0da" points="447.72,-249.31 457.81,-246.08 447.91,-242.32 447.72,-249.31"/>
</g>
<!-- 3&#45;&gt;4 -->
<g id="edge13" class="edge">
<title>3&#45;&gt;4</title>
<path fill="none" stroke="#9cad8c" d="M422.1,-258.92C430.28,-259.23 439.06,-259.32 447.59,-259.19"/>
<polygon fill="#9cad8c" stroke="#9cad8c" points="447.91,-262.68 457.81,-258.92 447.72,-255.69 447.91,-262.68"/>
</g>
<!-- 5 -->
<g id="node6" class="node">
<title>5</title>
<path fill="#f1c8cb" stroke="#9cad8c" d="M581,-206.5C581,-206.5 632,-206.5 632,-206.5 638,-206.5 644,-212.5 644,-218.5 644,-218.5 644,-286.5 644,-286.5 644,-292.5 638,-298.5 632,-298.5 632,-298.5 581,-298.5 581,-298.5 575,-298.5 569,-292.5 569,-286.5 569,-286.5 569,-218.5 569,-218.5 569,-212.5 575,-206.5 581,-206.5"/>
<text text-anchor="middle" x="606.5" y="-283.3" font-family="Times,serif" font-size="14.00">indx: 5</text>
<polyline fill="none" stroke="#9cad8c" points="569,-275.5 644,-275.5 "/>
<text text-anchor="middle" x="606.5" y="-260.3" font-family="Times,serif" font-size="14.00">data: 50</text>
<polyline fill="none" stroke="#9cad8c" points="569,-252.5 644,-252.5 "/>
<text text-anchor="middle" x="606.5" y="-237.3" font-family="Times,serif" font-size="14.00">next: 0</text>
<polyline fill="none" stroke="#9cad8c" points="569,-229.5 644,-229.5 "/>
<text text-anchor="middle" x="606.5" y="-214.3" font-family="Times,serif" font-size="14.00">prev: 4</text>
</g>
<!-- 4&#45;&gt;5 -->
<g id="edge5" class="edge">
<title>4&#45;&gt;5</title>
<path fill="none" stroke="#ece0da" d="M533.1,-246.08C541.28,-245.77 550.06,-245.68 558.59,-245.81"/>
<polygon fill="#ece0da" stroke="#ece0da" points="558.72,-249.31 568.81,-246.08 558.91,-242.32 558.72,-249.31"/>
</g>
<!-- 4&#45;&gt;5 -->
<g id="edge14" class="edge">
<title>4&#45;&gt;5</title>
<path fill="none" stroke="#9cad8c" d="M533.1,-258.92C541.28,-259.23 550.06,-259.32 558.59,-259.19"/>
<polygon fill="#9cad8c" stroke="#9cad8c" points="558.91,-262.68 568.81,-258.92 558.72,-255.69 558.91,-262.68"/>
</g>
<!-- 5&#45;&gt;0 -->
<g id="edge15" class="edge">
<title>5&#45;&gt;0</title>
<path fill="none" stroke="#9cad8c" d="M568.71,-217.4C558,-209.28 545.73,-201.78 533,-197.5 361.13,-139.68 298.09,-143.46 125,-197.5 115.63,-200.43 106.39,-204.89 97.71,-210.03"/>
<polygon fill="#9cad8c" stroke="#9cad8c" points="95.83,-207.07 89.23,-215.36 99.56,-213 95.83,-207.07"/>
</g>
<!-- 5&#45;&gt;6 -->
<g id="edge6" class="edge">
<title>5&#45;&gt;6</title>
<path fill="none" stroke="#ece0da" d="M644.1,-252.5C652.28,-252.5 661.06,-252.5 669.59,-252.5"/>
<polygon fill="#ece0da" stroke="#ece0da" points="669.81,-256 679.81,-252.5 669.81,-249 669.81,-256"/>
</g>
<!-- 6&#45;&gt;3 -->
<g id="edge12" class="edge">
<title>6&#45;&gt;3</title>
<path fill="none" stroke="#9cad8c" d="M679.71,-217.4C669,-209.28 656.73,-201.78 644,-197.5 565.65,-171.14 536.35,-171.14 458,-197.5 448.45,-200.71 439.17,-205.73 430.6,-211.47"/>
<polygon fill="#9cad8c" stroke="#9cad8c" points="428.4,-208.74 422.29,-217.4 432.47,-214.44 428.4,-208.74"/>
</g>
<!-- 7 -->
<g id="node8" class="node">
<title>7</title>
<path fill="#f1c8cb" stroke="#9cad8c" d="M803,-206.5C803,-206.5 868,-206.5 868,-206.5 874,-206.5 880,-212.5 880,-218.5 880,-218.5 880,-286.5 880,-286.5 880,-292.5 874,-298.5 868,-298.5 868,-298.5 803,-298.5 803,-298.5 797,-298.5 791,-292.5 791,-286.5 791,-286.5 791,-218.5 791,-218.5 791,-212.5 797,-206.5 803,-206.5"/>
<text text-anchor="middle" x="835.5" y="-283.3" font-family="Times,serif" font-size="14.00">indx: 7</text>
<polyline fill="none" stroke="#9cad8c" points="791,-275.5 880,-275.5 "/>
<text text-anchor="middle" x="835.5" y="-260.3" font-family="Times,serif" font-size="14.00">data: &#45;666</text>
<polyline fill="none" stroke="#9cad8c" points="791,-252.5 880,-252.5 "/>
<text text-anchor="middle" x="835.5" y="-237.3" font-family="Times,serif" font-size="14.00">next: 8</text>
<polyline fill="none" stroke="#9cad8c" points="791,-229.5 880,-229.5 "/>
<text text-anchor="middle" x="835.5" y="-214.3" font-family="Times,serif" font-size="14.00">prev: 8</text>
</g>
<!-- 6&#45;&gt;7 -->
<g id="edge7" class="edge">
<title>6&#45;&gt;7</title>
<path fill="none" stroke="#ece0da" d="M755.2,-252.5C763.31,-252.5 772.07,-252.5 780.7,-252.5"/>
<polygon fill="#ece0da" stroke="#ece0da" points="780.73,-256 790.73,-252.5 780.73,-249 780.73,-256"/>
</g>
<!-- 8 -->
<g id="node9" class="node">
<title>8</title>
<path fill="#f1c8cb" stroke="#9cad8c" d="M928,-206.5C928,-206.5 993,-206.5 993,-206.5 999,-206.5 1005,-212.5 1005,-218.5 1005,-218.5 1005,-286.5 1005,-286.5 1005,-292.5 999,-298.5 993,-298.5 993,-298.5 928,-298.5 928,-298.5 922,-298.5 916,-292.5 916,-286.5 916,-286.5 916,-218.5 916,-218.5 916,-212.5 922,-206.5 928,-206.5"/>
<text text-anchor="middle" x="960.5" y="-283.3" font-family="Times,serif" font-size="14.00">indx: 8</text>
<polyline fill="none" stroke="#9cad8c" points="916,-275.5 1005,-275.5 "/>
<text text-anchor="middle" x="960.5" y="-260.3" font-family="Times,serif" font-size="14.00">data: &#45;666</text>
<polyline fill="none" stroke="#9cad8c" points="916,-252.5 1005,-252.5 "/>
<text text-anchor="middle" x="960.5" y="-237.3" font-family="Times,serif" font-size="14.00">next: 7</text>
<polyline fill="none" stroke="#9cad8c" points="916,-229.5 1005,-229.5 "/>
<text text-anchor="middle" x="960.5" y="-214.3" font-family="Times,serif" font-size="14.00">prev: 7</text>
</g>
<!-- 7&#45;&gt;8 -->
<g id="edge8" class="edge">
<title>7&#45;&gt;8</title>
<path fill="none" stroke="#ece0da" d="M880.21,-239.51C888.46,-239.02 897.17,-238.88 905.69,-239.09"/>
<polygon fill="#ece0da" stroke="#ece0da" points="905.79,-242.6 915.93,-239.52 906.08,-235.61 905.79,-242.6"/>
</g>
<!-- 7&#45;&gt;8 -->
<g id="edge16" class="edge">
<title>7&#45;&gt;8</title>
<path fill="none" stroke="#9cad8c" d="M880.21,-252.5C888.46,-252.5 897.17,-252.5 905.69,-252.5"/>
<polygon fill="#9cad8c" stroke="#9cad8c" points="905.93,-256 915.93,-252.5 905.93,-249 905.93,-256"/>
</g>
<!-- 8&#45;&gt;7 -->
<g id="edge17" class="edge">
<title>8&#45;&gt;7</title>
<path fill="none" stroke="#9cad8c" d="M915.93,-265.48C907.69,-265.97 898.97,-266.11 890.46,-265.91"/>
<polygon fill="#9cad8c" stroke="#9cad8c" points="890.35,-262.4 880.21,-265.49 890.06,-269.4 890.35,-262.4"/>
</g>
<!-- head -->
<g id="node10" class="node">
<title>head</title>
<path fill="#f6b0bb" stroke="#337357" d="M22,-0.5C22,-0.5 67,-0.5 67,-0.5 73,-0.5 79,-6.5 79,-12.5 79,-12.5 79,-24.5 79,-24.5 79,-30.5 73,-36.5 67,-36.5 67,-36.5 22,-36.5 22,-36.5 16,-36.5 10,-30.5 10,-24.5 10,-24.5 10,-12.5 10,-12.5 10,-6.5 16,-0.5 22,-0.5"/>
<text text-anchor="middle" x="44.5" y="-14.8" font-family="Times,serif" font-size="14.00">head: 1</text>
</g>
<!-- head&#45;&gt;1 -->
<g id="edge20" class="edge">
<title>head&#45;&gt;1</title>
<path fill="none" stroke="#337357" d="M54.6,-36.86C71.53,-71.01 108.47,-145.52 134.15,-197.34"/>
<polygon fill="#337357" stroke="#337357" points="131.07,-199 138.65,-206.41 137.35,-195.89 131.07,-199"/>
</g>
<!-- tail -->
<g id="node11" class="node">
<title>tail</title>
<path fill="#f6b0bb" stroke="#337357" d="M145.5,-0.5C145.5,-0.5 179.5,-0.5 179.5,-0.5 185.5,-0.5 191.5,-6.5 191.5,-12.5 191.5,-12.5 191.5,-24.5 191.5,-24.5 191.5,-30.5 185.5,-36.5 179.5,-36.5 179.5,-36.5 145.5,-36.5 145.5,-36.5 139.5,-36.5 133.5,-30.5 133.5,-24.5 133.5,-24.5 133.5,-12.5 133.5,-12.5 133.5,-6.5 139.5,-0.5 145.5,-0.5"/>
<text text-anchor="middle" x="162.5" y="-14.8" font-family="Times,serif" font-size="14.00">tail: 5</text>
</g>
<!-- head&#45;&gt;tail -->
<g id="edge18" class="edge">
<title>head&#45;&gt;tail</title>
<path fill="none" stroke="#ece0da" d="M79.05,-18.5C92.84,-18.5 108.87,-18.5 123.12,-18.5"/>
<polygon fill="#ece0da" stroke="#ece0da" points="123.12,-22 133.12,-18.5 123.12,-15 123.12,-22"/>
</g>
<!-- tail&#45;&gt;5 -->
<g id="edge21" class="edge">
<title>tail&#45;&gt;5</title>
<path fill="none" stroke="#337357" d="M191.53,-31C204.76,-36.36 220.92,-42.15 236,-45.5 365.28,-74.21 426.55,9.28 533,-69.5 572.97,-99.08 590.92,-154.15 598.98,-196.18"/>
<polygon fill="#337357" stroke="#337357" points="595.58,-197.06 600.77,-206.29 602.47,-195.83 595.58,-197.06"/>
</g>
<!-- free -->
<g id="node12" class="node">
<title>free</title>
<path fill="#f6b0bb" stroke="#337357" d="M254,-0.5C254,-0.5 293,-0.5 293,-0.5 299,-0.5 305,-6.5 305,-12.5 305,-12.5 305,-24.5 305,-24.5 305,-30.5 299,-36.5 293,-36.5 293,-36.5 254,-36.5 254,-36.5 248,-36.5 242,-30.5 242,-24.5 242,-24.5 242,-12.5 242,-12.5 242,-6.5 248,-0.5 254,-0.5"/>
<text text-anchor="middle" x="273.5" y="-14.8" font-family="Times,serif" font-size="14.00">free: 7</text>
</g>
<!-- tail&#45;&gt;free -->
<g id="edge19" class="edge">
<title>tail&#45;&gt;free</title>
<path fill="none" stroke="#ece0da" d="M191.57,-18.5C203.71,-18.5 218.17,-18.5 231.48,-18.5"/>
<polygon fill="#ece0da" stroke="#ece0da" points="231.84,-22 241.84,-18.5 231.84,-15 231.84,-22"/>
</g>
<!-- free&#45;&gt;7 -->
<g id="edge22" class="edge">
<title>free&#45;&gt;7</title>
<path fill="none" stroke="#337357" d="M305.05,-14.69C354.56,-9.71 454.68,-4.6 533,-32.5 632.6,-67.98 727.72,-147.61 783.61,-200.7"/>
<polygon fill="#337357" stroke="#337357" points="781.26,-203.29 790.9,-207.68 786.1,-198.23 781.26,-203.29"/>
</g>
</g>
</svg>
