<?xml version="1.0" encoding="UTF-8" standalone="no"?>
<!DOCTYPE svg PUBLIC "-//W3C//DTD SVG 1.1//EN"
 "http://www.w3.org/Graphics/SVG/1.1/DTD/svg11.dtd">
<!-- Generated by graphviz version 2.43.0 (0)
 -->
<!-- Title: List Pages: 1 -->
<svg width="1027pt" height="370pt"
 viewBox="0.00 0.00 1027.00 370.00" xmlns="http://www.w3.org/2000/svg" xmlns:xlink="http://www.w3.org/1999/xlink">
<g id="graph0" class="graph" transform="scale(1 1) rotate(0) translate(4 366)">
<title>List</title>
<polygon fill="#ece0da" stroke="transparent" points="-4,4 -4,-366 1023,-366 1023,4 -4,4"/>
<!-- 0 -->
<g id="node1" class="node">
<title>0</title>
<path fill="#f1c8cb" stroke="#9cad8c" d="M12,-269.5C12,-269.5 77,-269.5 77,-269.5 83,-269.5 89,-275.5 89,-281.5 89,-281.5 89,-349.5 89,-349.5 89,-355.5 83,-361.5 77,-361.5 77,-361.5 12,-361.5 12,-361.5 6,-361.5 0,-355.5 0,-349.5 0,-349.5 0,-281.5 0,-281.5 0,-275.5 6,-269.5 12,-269.5"/>
<text text-anchor="middle" x="44.5" y="-346.3" font-family="Times,serif" font-size="14.00">indx: 0</text>
<polyline fill="none" stroke="#9cad8c" points="0,-338.5 89,-338.5 "/>
<text text-anchor="middle" x="44.5" y="-323.3" font-family="Times,serif" font-size="14.00">data: &#45;666</text>
<polyline fill="none" stroke="#9cad8c" points="0,-315.5 89,-315.5 "/>
<text text-anchor="middle" x="44.5" y="-300.3" font-family="Times,serif" font-size="14.00">next: 1</text>
<polyline fill="none" stroke="#9cad8c" points="0,-292.5 89,-292.5 "/>
<text text-anchor="middle" x="44.5" y="-277.3" font-family="Times,serif" font-size="14.00">prev: 5</text>
</g>
<!-- 1 -->
<g id="node2" class="node">
<title>1</title>
<path fill="#f1c8cb" stroke="#9cad8c" d="M137,-269.5C137,-269.5 188,-269.5 188,-269.5 194,-269.5 200,-275.5 200,-281.5 200,-281.5 200,-349.5 200,-349.5 200,-355.5 194,-361.5 188,-361.5 188,-361.5 137,-361.5 137,-361.5 131,-361.5 125,-355.5 125,-349.5 125,-349.5 125,-281.5 125,-281.5 125,-275.5 131,-269.5 137,-269.5"/>
<text text-anchor="middle" x="162.5" y="-346.3" font-family="Times,serif" font-size="14.00">indx: 1</text>
<polyline fill="none" stroke="#9cad8c" points="125,-338.5 200,-338.5 "/>
<text text-anchor="middle" x="162.5" y="-323.3" font-family="Times,serif" font-size="14.00">data: 10</text>
<polyline fill="none" stroke="#9cad8c" points="125,-315.5 200,-315.5 "/>
<text text-anchor="middle" x="162.5" y="-300.3" font-family="Times,serif" font-size="14.00">next: 6</text>
<polyline fill="none" stroke="#9cad8c" points="125,-292.5 200,-292.5 "/>
<text text-anchor="middle" x="162.5" y="-277.3" font-family="Times,serif" font-size="14.00">prev: 0</text>
</g>
<!-- 0&#45;&gt;1 -->
<g id="edge1" class="edge">
<title>0&#45;&gt;1</title>
<path fill="none" stroke="#ece0da" d="M89.02,-308.94C97.43,-308.71 106.28,-308.69 114.78,-308.86"/>
<polygon fill="#ece0da" stroke="#ece0da" points="114.84,-312.37 124.94,-309.18 115.05,-305.37 114.84,-312.37"/>
</g>
<!-- 0&#45;&gt;1 -->
<g id="edge9" class="edge">
<title>0&#45;&gt;1</title>
<path fill="none" stroke="#9cad8c" d="M89.02,-322.06C97.43,-322.29 106.28,-322.31 114.78,-322.14"/>
<polygon fill="#9cad8c" stroke="#9cad8c" points="115.05,-325.63 124.94,-321.82 114.84,-318.63 115.05,-325.63"/>
</g>
<!-- 2 -->
<g id="node3" class="node">
<title>2</title>
<path fill="#f1c8cb" stroke="#9cad8c" d="M248,-269.5C248,-269.5 313,-269.5 313,-269.5 319,-269.5 325,-275.5 325,-281.5 325,-281.5 325,-349.5 325,-349.5 325,-355.5 319,-361.5 313,-361.5 313,-361.5 248,-361.5 248,-361.5 242,-361.5 236,-355.5 236,-349.5 236,-349.5 236,-281.5 236,-281.5 236,-275.5 242,-269.5 248,-269.5"/>
<text text-anchor="middle" x="280.5" y="-346.3" font-family="Times,serif" font-size="14.00">indx: 2</text>
<polyline fill="none" stroke="#9cad8c" points="236,-338.5 325,-338.5 "/>
<text text-anchor="middle" x="280.5" y="-323.3" font-family="Times,serif" font-size="14.00">data: &#45;666</text>
<polyline fill="none" stroke="#9cad8c" points="236,-315.5 325,-315.5 "/>
<text text-anchor="middle" x="280.5" y="-300.3" font-family="Times,serif" font-size="14.00">next: 7</text>
<polyline fill="none" stroke="#9cad8c" points="236,-292.5 325,-292.5 "/>
<text text-anchor="middle" x="280.5" y="-277.3" font-family="Times,serif" font-size="14.00">prev: 8</text>
</g>
<!-- 1&#45;&gt;2 -->
<g id="edge2" class="edge">
<title>1&#45;&gt;2</title>
<path fill="none" stroke="#ece0da" d="M200.2,-315.5C208.31,-315.5 217.07,-315.5 225.7,-315.5"/>
<polygon fill="#ece0da" stroke="#ece0da" points="225.73,-319 235.73,-315.5 225.73,-312 225.73,-319"/>
</g>
<!-- 6 -->
<g id="node7" class="node">
<title>6</title>
<path fill="#f1c8cb" stroke="#9cad8c" d="M706,-269.5C706,-269.5 757,-269.5 757,-269.5 763,-269.5 769,-275.5 769,-281.5 769,-281.5 769,-349.5 769,-349.5 769,-355.5 763,-361.5 757,-361.5 757,-361.5 706,-361.5 706,-361.5 700,-361.5 694,-355.5 694,-349.5 694,-349.5 694,-281.5 694,-281.5 694,-275.5 700,-269.5 706,-269.5"/>
<text text-anchor="middle" x="731.5" y="-346.3" font-family="Times,serif" font-size="14.00">indx: 6</text>
<polyline fill="none" stroke="#9cad8c" points="694,-338.5 769,-338.5 "/>
<text text-anchor="middle" x="731.5" y="-323.3" font-family="Times,serif" font-size="14.00">data: 25</text>
<polyline fill="none" stroke="#9cad8c" points="694,-315.5 769,-315.5 "/>
<text text-anchor="middle" x="731.5" y="-300.3" font-family="Times,serif" font-size="14.00">next: 3</text>
<polyline fill="none" stroke="#9cad8c" points="694,-292.5 769,-292.5 "/>
<text text-anchor="middle" x="731.5" y="-277.3" font-family="Times,serif" font-size="14.00">prev: 1</text>
</g>
<!-- 1&#45;&gt;6 -->
<g id="edge10" class="edge">
<title>1&#45;&gt;6</title>
<path fill="none" stroke="#9cad8c" d="M200.39,-282.32C252.14,-236.14 342.1,-157.36 361,-150.5 490.3,-103.6 544.3,-160.1 658,-237.5 668.25,-244.48 678.11,-253.15 687.07,-262.16"/>
<polygon fill="#9cad8c" stroke="#9cad8c" points="684.6,-264.64 694.06,-269.42 689.65,-259.79 684.6,-264.64"/>
</g>
<!-- 3 -->
<g id="node4" class="node">
<title>3</title>
<path fill="#f1c8cb" stroke="#9cad8c" d="M373,-269.5C373,-269.5 424,-269.5 424,-269.5 430,-269.5 436,-275.5 436,-281.5 436,-281.5 436,-349.5 436,-349.5 436,-355.5 430,-361.5 424,-361.5 424,-361.5 373,-361.5 373,-361.5 367,-361.5 361,-355.5 361,-349.5 361,-349.5 361,-281.5 361,-281.5 361,-275.5 367,-269.5 373,-269.5"/>
<text text-anchor="middle" x="398.5" y="-346.3" font-family="Times,serif" font-size="14.00">indx: 3</text>
<polyline fill="none" stroke="#9cad8c" points="361,-338.5 436,-338.5 "/>
<text text-anchor="middle" x="398.5" y="-323.3" font-family="Times,serif" font-size="14.00">data: 30</text>
<polyline fill="none" stroke="#9cad8c" points="361,-315.5 436,-315.5 "/>
<text text-anchor="middle" x="398.5" y="-300.3" font-family="Times,serif" font-size="14.00">next: 4</text>
<polyline fill="none" stroke="#9cad8c" points="361,-292.5 436,-292.5 "/>
<text text-anchor="middle" x="398.5" y="-277.3" font-family="Times,serif" font-size="14.00">prev: 6</text>
</g>
<!-- 2&#45;&gt;3 -->
<g id="edge3" class="edge">
<title>2&#45;&gt;3</title>
<path fill="none" stroke="#ece0da" d="M325.02,-315.5C333.43,-315.5 342.28,-315.5 350.78,-315.5"/>
<polygon fill="#ece0da" stroke="#ece0da" points="350.94,-319 360.94,-315.5 350.94,-312 350.94,-319"/>
</g>
<!-- 7 -->
<g id="node8" class="node">
<title>7</title>
<path fill="#f1c8cb" stroke="#9cad8c" d="M817,-269.5C817,-269.5 882,-269.5 882,-269.5 888,-269.5 894,-275.5 894,-281.5 894,-281.5 894,-349.5 894,-349.5 894,-355.5 888,-361.5 882,-361.5 882,-361.5 817,-361.5 817,-361.5 811,-361.5 805,-355.5 805,-349.5 805,-349.5 805,-281.5 805,-281.5 805,-275.5 811,-269.5 817,-269.5"/>
<text text-anchor="middle" x="849.5" y="-346.3" font-family="Times,serif" font-size="14.00">indx: 7</text>
<polyline fill="none" stroke="#9cad8c" points="805,-338.5 894,-338.5 "/>
<text text-anchor="middle" x="849.5" y="-323.3" font-family="Times,serif" font-size="14.00">data: &#45;666</text>
<polyline fill="none" stroke="#9cad8c" points="805,-315.5 894,-315.5 "/>
<text text-anchor="middle" x="849.5" y="-300.3" font-family="Times,serif" font-size="14.00">next: 8</text>
<polyline fill="none" stroke="#9cad8c" points="805,-292.5 894,-292.5 "/>
<text text-anchor="middle" x="849.5" y="-277.3" font-family="Times,serif" font-size="14.00">prev: 2</text>
</g>
<!-- 2&#45;&gt;7 -->
<g id="edge15" class="edge">
<title>2&#45;&gt;7</title>
<path fill="none" stroke="#9cad8c" d="M325.06,-280.75C336.27,-273.14 348.66,-265.79 361,-260.5 407.31,-240.66 421.88,-242.64 472,-237.5 603.7,-224 647.3,-208.36 769,-260.5 778.26,-264.47 787.54,-269.59 796.33,-275.12"/>
<polygon fill="#9cad8c" stroke="#9cad8c" points="794.65,-278.21 804.94,-280.75 798.49,-272.35 794.65,-278.21"/>
</g>
<!-- 4 -->
<g id="node5" class="node">
<title>4</title>
<path fill="#f1c8cb" stroke="#9cad8c" d="M484,-269.5C484,-269.5 535,-269.5 535,-269.5 541,-269.5 547,-275.5 547,-281.5 547,-281.5 547,-349.5 547,-349.5 547,-355.5 541,-361.5 535,-361.5 535,-361.5 484,-361.5 484,-361.5 478,-361.5 472,-355.5 472,-349.5 472,-349.5 472,-281.5 472,-281.5 472,-275.5 478,-269.5 484,-269.5"/>
<text text-anchor="middle" x="509.5" y="-346.3" font-family="Times,serif" font-size="14.00">indx: 4</text>
<polyline fill="none" stroke="#9cad8c" points="472,-338.5 547,-338.5 "/>
<text text-anchor="middle" x="509.5" y="-323.3" font-family="Times,serif" font-size="14.00">data: 40</text>
<polyline fill="none" stroke="#9cad8c" points="472,-315.5 547,-315.5 "/>
<text text-anchor="middle" x="509.5" y="-300.3" font-family="Times,serif" font-size="14.00">next: 5</text>
<polyline fill="none" stroke="#9cad8c" points="472,-292.5 547,-292.5 "/>
<text text-anchor="middle" x="509.5" y="-277.3" font-family="Times,serif" font-size="14.00">prev: 3</text>
</g>
<!-- 3&#45;&gt;4 -->
<g id="edge4" class="edge">
<title>3&#45;&gt;4</title>
<path fill="none" stroke="#ece0da" d="M436.1,-309.08C444.28,-308.77 453.06,-308.68 461.59,-308.81"/>
<polygon fill="#ece0da" stroke="#ece0da" points="461.72,-312.31 471.81,-309.08 461.91,-305.32 461.72,-312.31"/>
</g>
<!-- 3&#45;&gt;4 -->
<g id="edge12" class="edge">
<title>3&#45;&gt;4</title>
<path fill="none" stroke="#9cad8c" d="M436.1,-321.92C444.28,-322.23 453.06,-322.32 461.59,-322.19"/>
<polygon fill="#9cad8c" stroke="#9cad8c" points="461.91,-325.68 471.81,-321.92 461.72,-318.69 461.91,-325.68"/>
</g>
<!-- 5 -->
<g id="node6" class="node">
<title>5</title>
<path fill="#f1c8cb" stroke="#9cad8c" d="M595,-269.5C595,-269.5 646,-269.5 646,-269.5 652,-269.5 658,-275.5 658,-281.5 658,-281.5 658,-349.5 658,-349.5 658,-355.5 652,-361.5 646,-361.5 646,-361.5 595,-361.5 595,-361.5 589,-361.5 583,-355.5 583,-349.5 583,-349.5 583,-281.5 583,-281.5 583,-275.5 589,-269.5 595,-269.5"/>
<text text-anchor="middle" x="620.5" y="-346.3" font-family="Times,serif" font-size="14.00">indx: 5</text>
<polyline fill="none" stroke="#9cad8c" points="583,-338.5 658,-338.5 "/>
<text text-anchor="middle" x="620.5" y="-323.3" font-family="Times,serif" font-size="14.00">data: 50</text>
<polyline fill="none" stroke="#9cad8c" points="583,-315.5 658,-315.5 "/>
<text text-anchor="middle" x="620.5" y="-300.3" font-family="Times,serif" font-size="14.00">next: 0</text>
<polyline fill="none" stroke="#9cad8c" points="583,-292.5 658,-292.5 "/>
<text text-anchor="middle" x="620.5" y="-277.3" font-family="Times,serif" font-size="14.00">prev: 4</text>
</g>
<!-- 4&#45;&gt;5 -->
<g id="edge5" class="edge">
<title>4&#45;&gt;5</title>
<path fill="none" stroke="#ece0da" d="M547.1,-309.08C555.28,-308.77 564.06,-308.68 572.59,-308.81"/>
<polygon fill="#ece0da" stroke="#ece0da" points="572.72,-312.31 582.81,-309.08 572.91,-305.32 572.72,-312.31"/>
</g>
<!-- 4&#45;&gt;5 -->
<g id="edge13" class="edge">
<title>4&#45;&gt;5</title>
<path fill="none" stroke="#9cad8c" d="M547.1,-321.92C555.28,-322.23 564.06,-322.32 572.59,-322.19"/>
<polygon fill="#9cad8c" stroke="#9cad8c" points="572.91,-325.68 582.81,-321.92 572.72,-318.69 572.91,-325.68"/>
</g>
<!-- 5&#45;&gt;0 -->
<g id="edge14" class="edge">
<title>5&#45;&gt;0</title>
<path fill="none" stroke="#9cad8c" d="M582.77,-284.64C514.82,-231.44 364.67,-132.06 236,-174.5 182.74,-192.07 132.19,-230.9 96.56,-263.37"/>
<polygon fill="#9cad8c" stroke="#9cad8c" points="94.15,-260.83 89.19,-270.2 98.91,-265.97 94.15,-260.83"/>
</g>
<!-- 5&#45;&gt;6 -->
<g id="edge6" class="edge">
<title>5&#45;&gt;6</title>
<path fill="none" stroke="#ece0da" d="M658.1,-315.5C666.28,-315.5 675.06,-315.5 683.59,-315.5"/>
<polygon fill="#ece0da" stroke="#ece0da" points="683.81,-319 693.81,-315.5 683.81,-312 683.81,-319"/>
</g>
<!-- 6&#45;&gt;3 -->
<g id="edge11" class="edge">
<title>6&#45;&gt;3</title>
<path fill="none" stroke="#9cad8c" d="M693.71,-280.4C683,-272.28 670.73,-264.78 658,-260.5 579.65,-234.14 550.35,-234.14 472,-260.5 462.45,-263.71 453.17,-268.73 444.6,-274.47"/>
<polygon fill="#9cad8c" stroke="#9cad8c" points="442.4,-271.74 436.29,-280.4 446.47,-277.44 442.4,-271.74"/>
</g>
<!-- 6&#45;&gt;7 -->
<g id="edge7" class="edge">
<title>6&#45;&gt;7</title>
<path fill="none" stroke="#ece0da" d="M769.2,-315.5C777.31,-315.5 786.07,-315.5 794.7,-315.5"/>
<polygon fill="#ece0da" stroke="#ece0da" points="794.73,-319 804.73,-315.5 794.73,-312 794.73,-319"/>
</g>
<!-- 8 -->
<g id="node9" class="node">
<title>8</title>
<path fill="#f1c8cb" stroke="#9cad8c" d="M942,-269.5C942,-269.5 1007,-269.5 1007,-269.5 1013,-269.5 1019,-275.5 1019,-281.5 1019,-281.5 1019,-349.5 1019,-349.5 1019,-355.5 1013,-361.5 1007,-361.5 1007,-361.5 942,-361.5 942,-361.5 936,-361.5 930,-355.5 930,-349.5 930,-349.5 930,-281.5 930,-281.5 930,-275.5 936,-269.5 942,-269.5"/>
<text text-anchor="middle" x="974.5" y="-346.3" font-family="Times,serif" font-size="14.00">indx: 8</text>
<polyline fill="none" stroke="#9cad8c" points="930,-338.5 1019,-338.5 "/>
<text text-anchor="middle" x="974.5" y="-323.3" font-family="Times,serif" font-size="14.00">data: &#45;666</text>
<polyline fill="none" stroke="#9cad8c" points="930,-315.5 1019,-315.5 "/>
<text text-anchor="middle" x="974.5" y="-300.3" font-family="Times,serif" font-size="14.00">next: 2</text>
<polyline fill="none" stroke="#9cad8c" points="930,-292.5 1019,-292.5 "/>
<text text-anchor="middle" x="974.5" y="-277.3" font-family="Times,serif" font-size="14.00">prev: 7</text>
</g>
<!-- 7&#45;&gt;8 -->
<g id="edge8" class="edge">
<title>7&#45;&gt;8</title>
<path fill="none" stroke="#ece0da" d="M894.21,-309.01C902.46,-308.76 911.17,-308.69 919.69,-308.8"/>
<polygon fill="#ece0da" stroke="#ece0da" points="919.86,-312.3 929.93,-309.01 920,-305.3 919.86,-312.3"/>
</g>
<!-- 7&#45;&gt;8 -->
<g id="edge16" class="edge">
<title>7&#45;&gt;8</title>
<path fill="none" stroke="#9cad8c" d="M894.21,-321.99C902.46,-322.24 911.17,-322.31 919.69,-322.2"/>
<polygon fill="#9cad8c" stroke="#9cad8c" points="920,-325.7 929.93,-321.99 919.86,-318.7 920,-325.7"/>
</g>
<!-- 8&#45;&gt;2 -->
<g id="edge17" class="edge">
<title>8&#45;&gt;2</title>
<path fill="none" stroke="#9cad8c" d="M929.82,-281.03C918.62,-273.41 906.26,-265.98 894,-260.5 841.84,-237.18 825.34,-240.01 769,-230.5 590.17,-200.33 524.69,-158.44 361,-236.5 347.87,-242.76 335.63,-252.1 324.88,-262.19"/>
<polygon fill="#9cad8c" stroke="#9cad8c" points="322.36,-259.76 317.68,-269.26 327.27,-264.75 322.36,-259.76"/>
</g>
<!-- head -->
<g id="node10" class="node">
<title>head</title>
<path fill="#f6b0bb" stroke="#337357" d="M22,-0.5C22,-0.5 67,-0.5 67,-0.5 73,-0.5 79,-6.5 79,-12.5 79,-12.5 79,-24.5 79,-24.5 79,-30.5 73,-36.5 67,-36.5 67,-36.5 22,-36.5 22,-36.5 16,-36.5 10,-30.5 10,-24.5 10,-24.5 10,-12.5 10,-12.5 10,-6.5 16,-0.5 22,-0.5"/>
<text text-anchor="middle" x="44.5" y="-14.8" font-family="Times,serif" font-size="14.00">head: 1</text>
</g>
<!-- head&#45;&gt;1 -->
<g id="edge20" class="edge">
<title>head&#45;&gt;1</title>
<path fill="none" stroke="#337357" d="M52.58,-36.63C69.55,-80.09 113.11,-191.62 139.72,-259.74"/>
<polygon fill="#337357" stroke="#337357" points="136.62,-261.42 143.52,-269.46 143.14,-258.87 136.62,-261.42"/>
</g>
<!-- tail -->
<g id="node11" class="node">
<title>tail</title>
<path fill="#f6b0bb" stroke="#337357" d="M145.5,-0.5C145.5,-0.5 179.5,-0.5 179.5,-0.5 185.5,-0.5 191.5,-6.5 191.5,-12.5 191.5,-12.5 191.5,-24.5 191.5,-24.5 191.5,-30.5 185.5,-36.5 179.5,-36.5 179.5,-36.5 145.5,-36.5 145.5,-36.5 139.5,-36.5 133.5,-30.5 133.5,-24.5 133.5,-24.5 133.5,-12.5 133.5,-12.5 133.5,-6.5 139.5,-0.5 145.5,-0.5"/>
<text text-anchor="middle" x="162.5" y="-14.8" font-family="Times,serif" font-size="14.00">tail: 5</text>
</g>
<!-- head&#45;&gt;tail -->
<g id="edge18" class="edge">
<title>head&#45;&gt;tail</title>
<path fill="none" stroke="#ece0da" d="M79.05,-18.5C92.84,-18.5 108.87,-18.5 123.12,-18.5"/>
<polygon fill="#ece0da" stroke="#ece0da" points="123.12,-22 133.12,-18.5 123.12,-15 123.12,-22"/>
</g>
<!-- tail&#45;&gt;5 -->
<g id="edge21" class="edge">
<title>tail&#45;&gt;5</title>
<path fill="none" stroke="#337357" d="M191.5,-31.42C204.72,-36.97 220.89,-42.97 236,-46.5 371.15,-78.03 439.45,13.22 547,-74.5 601.51,-118.96 616.13,-202.8 619.48,-258.91"/>
<polygon fill="#337357" stroke="#337357" points="615.99,-259.24 619.98,-269.05 622.98,-258.89 615.99,-259.24"/>
</g>
<!-- free -->
<g id="node12" class="node">
<title>free</title>
<path fill="#f6b0bb" stroke="#337357" d="M261,-0.5C261,-0.5 300,-0.5 300,-0.5 306,-0.5 312,-6.5 312,-12.5 312,-12.5 312,-24.5 312,-24.5 312,-30.5 306,-36.5 300,-36.5 300,-36.5 261,-36.5 261,-36.5 255,-36.5 249,-30.5 249,-24.5 249,-24.5 249,-12.5 249,-12.5 249,-6.5 255,-0.5 261,-0.5"/>
<text text-anchor="middle" x="280.5" y="-14.8" font-family="Times,serif" font-size="14.00">free: 2</text>
</g>
<!-- tail&#45;&gt;free -->
<g id="edge19" class="edge">
<title>tail&#45;&gt;free</title>
<path fill="none" stroke="#ece0da" d="M191.58,-18.5C205.64,-18.5 222.92,-18.5 238.43,-18.5"/>
<polygon fill="#ece0da" stroke="#ece0da" points="238.83,-22 248.83,-18.5 238.83,-15 238.83,-22"/>
</g>
</g>
</svg>
